<svg width="175" height="174" viewBox="0 0 175 174" fill="none" xmlns="http://www.w3.org/2000/svg">
<rect width="174" height="174" transform="translate(0.5)" fill="#FFE1D8"/>
<path fill-rule="evenodd" clip-rule="evenodd" d="M126.508 40.5C130.642 40.5 134 43.8583 134 47.9917C134 49.8 133.328 51.6083 132.088 52.9517L92.6667 97.3333V123.167H113.333C116.175 123.167 118.5 125.492 118.5 128.333C118.5 131.175 116.175 133.5 113.333 133.5H61.6667C58.825 133.5 56.5 131.175 56.5 128.333C56.5 125.492 58.825 123.167 61.6667 123.167H82.3333V97.3333L42.9117 52.9517C41.6717 51.6083 41 49.8 41 47.9917C41 43.8583 44.3583 40.5 48.4917 40.5H126.508ZM54.7433 50.8333L63.8883 61.1667H111.112L120.308 50.8333H54.7433Z" fill="#FF9A7B"/>
</svg>
