<svg width="175" height="174" viewBox="0 0 175 174" fill="none" xmlns="http://www.w3.org/2000/svg">
<rect width="174" height="174" transform="translate(0.5)" fill="#FFE1D8"/>
<path fill-rule="evenodd" clip-rule="evenodd" d="M133.69 81.8333C131.313 60.2883 114.212 43.1866 92.6666 40.81V35.3333C92.6666 32.4916 90.3416 30.1666 87.5 30.1666C84.6583 30.1666 82.3333 32.4916 82.3333 35.3333V40.81C60.7883 43.1866 43.6866 60.2883 41.31 81.8333H35.8333C32.9916 81.8333 30.6666 84.1583 30.6666 87C30.6666 89.8416 32.9916 92.1666 35.8333 92.1666H41.31C43.6866 113.712 60.7883 130.813 82.3333 133.19V138.667C82.3333 141.508 84.6583 143.833 87.5 143.833C90.3416 143.833 92.6666 141.508 92.6666 138.667V133.19C114.212 130.813 131.313 113.712 133.69 92.1666H139.167C142.008 92.1666 144.333 89.8416 144.333 87C144.333 84.1583 142.008 81.8333 139.167 81.8333H133.69ZM87.5 66.3333C76.0816 66.3333 66.8333 75.5816 66.8333 87C66.8333 98.4183 76.0816 107.667 87.5 107.667C98.9183 107.667 108.167 98.4183 108.167 87C108.167 75.5816 98.9183 66.3333 87.5 66.3333ZM51.3333 87C51.3333 106.995 67.505 123.167 87.5 123.167C107.495 123.167 123.667 106.995 123.667 87C123.667 67.005 107.495 50.8333 87.5 50.8333C67.505 50.8333 51.3333 67.005 51.3333 87Z" fill="#FF9A7B"/>
</svg>
