<svg width="175" height="174" viewBox="0 0 175 174" fill="none" xmlns="http://www.w3.org/2000/svg">
<rect x="0.5" width="174" height="174" rx="12" fill="#FFE1D8"/>
<path fill-rule="evenodd" clip-rule="evenodd" d="M92.6723 71.5009L126.721 37.4526C131.319 32.8543 139.172 36.1093 139.172 42.5676V42.6193C139.172 44.5826 138.397 46.4426 137.054 47.7859L103.006 81.8343L92.6723 71.5009ZM75.3123 64.4743C76.8106 61.2709 77.4823 57.6026 77.0689 53.6759C76.0873 44.7376 69.1123 37.1426 60.2256 35.6443C45.9139 33.1643 33.6689 45.4093 36.1489 59.6693C37.6989 68.5559 45.2423 75.5309 54.1806 76.5126C58.1073 76.9259 61.7239 76.2543 64.9789 74.7559L77.1723 87.0009L64.9789 99.1943C61.7756 97.6959 58.1073 97.0243 54.1806 97.4376C45.2423 98.4193 37.6473 105.394 36.1489 114.281C33.6689 128.593 45.9139 140.786 60.1739 138.306C69.0606 136.756 76.0356 129.213 77.0173 120.274C77.4306 116.348 76.7589 112.731 75.2606 109.476L87.5056 97.3343L126.721 136.549C131.319 141.148 139.172 137.893 139.172 131.383V131.331C139.172 129.419 138.397 127.559 137.054 126.164L75.3123 64.4743ZM56.5056 66.3343C50.8223 66.3343 46.1723 61.7359 46.1723 56.0009C46.1723 50.2659 50.8223 45.6676 56.5056 45.6676C62.1889 45.6676 66.8389 50.2659 66.8389 56.0009C66.8389 61.7359 62.1889 66.3343 56.5056 66.3343ZM46.1723 118.001C46.1723 123.736 50.8223 128.334 56.5056 128.334C62.1889 128.334 66.8389 123.736 66.8389 118.001C66.8389 112.266 62.1889 107.668 56.5056 107.668C50.8223 107.668 46.1723 112.266 46.1723 118.001ZM87.5056 89.5843C86.0589 89.5843 84.9223 88.4476 84.9223 87.0009C84.9223 85.5543 86.0589 84.4176 87.5056 84.4176C88.9523 84.4176 90.0889 85.5543 90.0889 87.0009C90.0889 88.4476 88.9523 89.5843 87.5056 89.5843Z" fill="#FF9A7B"/>
</svg>
