<svg width="108" height="27" viewBox="0 0 108 27" fill="none" xmlns="http://www.w3.org/2000/svg">
<path d="M16.736 25.896C16.736 25.8747 16.7147 25.832 16.672 25.768C16.6293 25.7253 16.608 25.6933 16.608 25.672C16.608 25.6507 16.6293 25.5973 16.672 25.512C16.736 25.4267 16.7787 25.3627 16.8 25.32C16.8213 25.2987 16.896 25.2133 17.024 25.064C17.1733 24.936 17.2587 24.872 17.28 24.872C17.2587 24.872 17.2587 24.872 17.28 24.872C17.28 24.8933 17.312 24.936 17.376 25C17.4187 24.936 17.4507 24.872 17.472 24.808C17.4933 24.744 17.5147 24.6693 17.536 24.584C17.6213 24.5627 17.728 24.4987 17.856 24.392C17.92 24.3067 18.0267 24.168 18.176 23.976C18.3253 23.784 18.5707 23.4853 18.912 23.08C19.04 23.0587 19.1787 22.856 19.328 22.472C19.328 22.4507 19.328 22.4187 19.328 22.376C19.328 22.3333 19.3387 22.28 19.36 22.216C19.3813 22.2373 19.4133 22.312 19.456 22.44C19.584 22.3973 19.6587 22.3333 19.68 22.248C19.9573 22.0133 20.256 21.5973 20.576 21C20.8107 20.7653 20.9707 20.6373 21.056 20.616C21.0987 20.36 21.0987 20.232 21.056 20.232C21.12 20.2107 21.1733 20.136 21.216 20.008C21.3013 20.008 21.4827 19.816 21.76 19.432L21.888 19.272C22.0373 19.208 22.2293 19.0267 22.464 18.728C22.5067 18.6853 22.5493 18.6427 22.592 18.6C22.6347 18.5573 22.6987 18.5147 22.784 18.472C22.8053 18.4293 22.7947 18.3653 22.752 18.28C22.88 18.28 22.9227 18.3013 22.88 18.344H22.912C23.04 18.344 23.1147 18.1947 23.136 17.896C23.1147 17.896 23.1147 17.8853 23.136 17.864V17.896C23.136 17.896 23.1573 17.896 23.2 17.896C23.1787 17.896 23.2427 17.8213 23.392 17.672C23.4347 17.6293 23.4987 17.5653 23.584 17.48C23.6693 17.3947 23.7227 17.2987 23.744 17.192V17.064C23.7653 17.0213 23.7867 16.9787 23.808 16.936C23.8507 16.8933 23.8827 16.8507 23.904 16.808C24.0107 16.5947 24.0853 16.488 24.128 16.488C24.1067 16.4667 24.0853 16.4347 24.064 16.392C24.0427 16.3493 24.0213 16.3067 24 16.264C23.744 16.5627 23.616 16.744 23.616 16.808C23.616 16.872 23.6053 16.936 23.584 17C23.5413 17 23.488 16.9893 23.424 16.968C23.3813 16.9253 23.3387 16.904 23.296 16.904C23.0187 16.904 22.9547 17 23.104 17.192L22.944 17.256C22.7307 17.5333 22.528 17.7787 22.336 17.992C22.144 18.184 21.9627 18.3653 21.792 18.536L21.088 19.112C21.0667 19.1333 21.056 19.1547 21.056 19.176C21.056 19.1973 20.9707 19.2613 20.8 19.368C20.7147 19.4533 20.6187 19.56 20.512 19.688C20.4267 19.7947 20.3307 19.9227 20.224 20.072L19.488 20.872C19.4027 20.9573 19.2853 21.0533 19.136 21.16C18.9867 21.288 18.816 21.4373 18.624 21.608L18.336 21.928C18.336 21.8853 18.3147 21.8427 18.272 21.8C18.2933 21.6933 18.3573 21.5653 18.464 21.416C18.592 21.2667 18.7947 21.0427 19.072 20.744L20.576 19.08L21.344 18.44C21.5573 18.1627 21.9307 17.7253 22.464 17.128C22.6347 17.0427 22.7947 16.936 22.944 16.808L23.008 16.68C23.392 16.3813 23.712 16.0613 23.968 15.72L24.256 15.56C24.2987 15.496 24.3733 15.4213 24.48 15.336C24.608 15.2293 24.8 15.0907 25.056 14.92C25.6107 14.3867 25.8773 14.056 25.856 13.928C26.112 13.8 26.2293 13.576 26.208 13.256L26.272 13.48C26.4 13.48 26.4853 13.4053 26.528 13.256C26.5707 13.1067 26.6027 12.968 26.624 12.84L27.328 11.56L27.456 11.08C27.4987 11.0587 27.5307 10.9947 27.552 10.888C27.5733 10.7813 27.6907 10.568 27.904 10.248V10.152C27.904 10.088 27.904 10.024 27.904 9.96C27.9253 9.896 27.9467 9.832 27.968 9.768C28.0107 9.74667 28.0747 9.672 28.16 9.544C28.2027 9.50133 28.224 9.416 28.224 9.288L28.16 9.064V8.904C28.16 8.904 28.224 8.82933 28.352 8.68C28.3947 8.63733 28.3947 8.59467 28.352 8.552L28.64 8.04V7.912C28.64 7.86933 28.64 7.80533 28.64 7.72C28.64 7.61333 28.6293 7.496 28.608 7.368L28.672 7.272V6.824C28.736 6.58933 28.768 6.51467 28.768 6.6C28.768 6.38667 28.7573 6.248 28.736 6.184L28.256 5.224C28.1707 5.096 28.0427 5.032 27.872 5.032L27.744 5.064C27.744 5.02133 27.7547 4.98933 27.776 4.968C27.712 4.86133 27.6373 4.808 27.552 4.808H27.488C27.488 4.82933 27.4773 4.84 27.456 4.84H27.424C27.4453 4.84 27.456 4.84 27.456 4.84C27.456 4.81867 27.3493 4.776 27.136 4.712C27.008 4.66933 26.8907 4.648 26.784 4.648C26.7627 4.648 26.7627 4.65867 26.784 4.68C26.784 4.72267 26.7733 4.744 26.752 4.744C26.7093 4.744 26.6773 4.73333 26.656 4.712C26.656 4.69067 26.6453 4.68 26.624 4.68C26.5813 4.68 26.5387 4.70133 26.496 4.744C26.4747 4.78667 26.4533 4.808 26.432 4.808C26.3893 4.808 26.3147 4.79733 26.208 4.776C26.1013 4.75467 26.0267 4.744 25.984 4.744L25.28 4.84L24.608 4.904C24.48 4.98933 24.384 5.032 24.32 5.032C24.2773 5.032 24.1387 5.07467 23.904 5.16C23.712 5.24533 23.5733 5.288 23.488 5.288C23.4453 5.288 23.232 5.352 22.848 5.48L22.752 5.608C21.536 6.03467 20.4587 6.51467 19.52 7.048C19.4347 7.06933 19.3387 7.112 19.232 7.176C19.1467 7.21867 19.0293 7.26133 18.88 7.304L16.672 8.36C16.1813 8.65867 15.9787 8.808 16.064 8.808H16C16 8.78667 15.9787 8.776 15.936 8.776C15.9787 8.776 15.9253 8.808 15.776 8.872C15.6267 8.936 15.456 9.07467 15.264 9.288C15.0507 9.288 14.9333 9.33067 14.912 9.416C14.8693 9.416 14.8693 9.39467 14.912 9.352C14.912 9.33067 14.9013 9.32 14.88 9.32C14.8587 9.32 14.7627 9.40533 14.592 9.576C14.4427 9.72533 14.3573 9.8 14.336 9.8C14.3147 9.8 14.2933 9.78933 14.272 9.768H14.24C14.24 9.768 14.1013 9.82133 13.824 9.928C13.76 9.94933 13.728 10.0027 13.728 10.088L13.056 10.472C13.0773 10.472 12.9387 10.568 12.64 10.76L11.84 11.144L10.752 11.72C10.7307 11.72 10.72 11.752 10.72 11.816C10.72 11.7947 10.6987 11.784 10.656 11.784C10.5067 11.784 10.3467 11.8587 10.176 12.008C10.1333 12.008 10.0907 12.0187 10.048 12.04C9.89867 12.1253 9.696 12.2533 9.44 12.424C9.41867 12.424 9.26933 12.5307 8.992 12.744C8.94933 12.7013 8.896 12.68 8.832 12.68C8.81067 12.68 8.768 12.7013 8.704 12.744C8.66133 12.7867 8.62933 12.808 8.608 12.808C8.56533 12.808 8.544 12.7973 8.544 12.776C8.56533 12.7547 8.56533 12.744 8.544 12.744C8.39467 12.744 8.256 12.872 8.128 13.128C7.95733 13.128 7.78667 13.192 7.616 13.32C7.46667 13.4267 7.37067 13.48 7.328 13.48C7.30667 13.48 7.21067 13.544 7.04 13.672C6.95467 13.6933 6.848 13.7253 6.72 13.768C6.592 13.8107 6.44267 13.864 6.272 13.928C6.22933 13.9493 6.144 14.0133 6.016 14.12C5.888 14.2267 5.80267 14.28 5.76 14.28H5.728C5.74933 14.2587 5.73867 14.248 5.696 14.248C5.67467 14.248 5.64267 14.2693 5.6 14.312C5.57867 14.3547 5.55733 14.376 5.536 14.376C5.49333 14.376 5.29067 14.4293 4.928 14.536L4.832 14.472C4.61867 14.6213 4.50133 14.696 4.48 14.696C4.45867 14.696 4.43733 14.6853 4.416 14.664C4.39467 14.6427 4.36267 14.632 4.32 14.632C4.27733 14.632 4.20267 14.664 4.096 14.728C4.01067 14.792 3.94667 14.824 3.904 14.824H3.872C3.872 14.8027 3.86133 14.792 3.84 14.792C3.81867 14.792 3.808 14.8133 3.808 14.856C3.82933 14.8773 3.81867 14.888 3.776 14.888C3.75467 14.888 3.72267 14.8773 3.68 14.856C3.65867 14.8347 3.63733 14.824 3.616 14.824C3.57333 14.824 3.552 14.8453 3.552 14.888C3.57333 14.9093 3.57333 14.92 3.552 14.92C3.50933 14.92 3.49867 14.9093 3.52 14.888H3.488C3.36 14.888 3.31733 14.8987 3.36 14.92L3.296 14.984C3.21067 14.984 3.09333 14.9733 2.944 14.952C2.816 14.9307 2.74133 14.92 2.72 14.92C2.69867 14.92 2.67733 14.9413 2.656 14.984C2.63467 15.0053 2.61333 15.016 2.592 15.016C2.54933 15.016 2.42133 14.984 2.208 14.92C1.99467 14.856 1.87733 14.824 1.856 14.824C1.87733 14.824 1.824 14.856 1.696 14.92L1.152 14.632C1.04533 14.568 0.992 14.5253 0.992 14.504V14.536H0.96C0.896 14.536 0.693333 14.3013 0.352 13.832V13.608C0.373333 13.5867 0.384 13.5547 0.384 13.512C0.384 13.256 0.448 12.904 0.576 12.456C0.533333 12.392 0.672 12.0933 0.992 11.56C1.09867 11.4747 1.20533 11.3787 1.312 11.272C1.41867 11.144 1.52533 10.9947 1.632 10.824C1.86667 10.6107 2.05867 10.408 2.208 10.216C2.272 10.152 2.38933 10.088 2.56 10.024L2.624 9.896C2.73067 9.78933 2.86933 9.672 3.04 9.544C3.232 9.39467 3.44533 9.23467 3.68 9.064C3.72267 9.04267 3.78667 8.98933 3.872 8.904C3.95733 8.81867 4.07467 8.75467 4.224 8.712C4.37333 8.49867 4.49067 8.392 4.576 8.392H4.608C4.608 8.41333 4.61867 8.424 4.64 8.424C4.64 8.424 4.65067 8.40267 4.672 8.36C4.71467 8.31733 4.78933 8.296 4.896 8.296L4.992 8.232C5.03467 8.232 5.056 8.22133 5.056 8.2H5.088L5.408 7.976V8.2L4.832 8.616L4.224 8.936L3.424 9.576C3.31733 9.72533 3.11467 9.88533 2.816 10.056C2.77333 10.2053 2.58133 10.408 2.24 10.664C2.24 10.6853 2.24 10.7173 2.24 10.76C2.24 10.8027 2.22933 10.8453 2.208 10.888C2.208 10.888 2.19733 10.888 2.176 10.888C2.176 10.888 2.16533 10.8773 2.144 10.856C2.05867 10.9413 1.99467 11.0693 1.952 11.24C1.90933 11.1973 1.87733 11.176 1.856 11.176C1.83467 11.2187 1.80267 11.2827 1.76 11.368C1.73867 11.4533 1.68533 11.5493 1.6 11.656L1.376 11.752V11.816C1.376 12.008 1.25867 12.168 1.024 12.296C1.024 12.3173 1.024 12.328 1.024 12.328C1.04533 12.328 1.056 12.3387 1.056 12.36C1.056 12.4453 1.01333 12.5627 0.928 12.712C0.842667 12.84 0.8 12.9253 0.8 12.968C0.8 12.9893 0.810667 13.032 0.832 13.096C0.874667 13.16 0.896 13.2133 0.896 13.256C0.896 13.2773 0.896 13.3093 0.896 13.352C0.896 13.3947 0.885333 13.448 0.864 13.512C0.885333 13.576 0.928 13.64 0.992 13.704C1.056 13.7467 1.13067 13.7893 1.216 13.832C1.344 13.896 1.41867 13.9387 1.44 13.96C1.44 13.96 1.45067 13.96 1.472 13.96C1.49333 13.96 1.504 13.9813 1.504 14.024C1.504 14.0667 1.51467 14.088 1.536 14.088C1.57867 14.088 1.61067 14.0667 1.632 14.024C1.65333 13.96 1.68533 13.928 1.728 13.928C1.74933 13.928 1.76 13.9387 1.76 13.96H1.824C1.86667 13.96 1.888 13.928 1.888 13.864C1.90933 13.8853 1.93067 13.9067 1.952 13.928C1.97333 13.9493 2.00533 13.9813 2.048 14.024H2.112C2.176 14.024 2.24 14.0133 2.304 13.992C2.41067 13.9493 2.50667 13.9493 2.592 13.992L3.104 14.088C3.14667 14.088 3.22133 14.056 3.328 13.992C3.43467 13.928 3.552 13.896 3.68 13.896H3.808C3.82933 13.9173 3.872 13.928 3.936 13.928L4 13.864C4.064 13.8427 4.14933 13.8107 4.256 13.768C4.36267 13.704 4.42667 13.672 4.448 13.672C4.46933 13.672 4.50133 13.6827 4.544 13.704C4.58667 13.7253 4.61867 13.736 4.64 13.736C4.576 13.736 4.62933 13.704 4.8 13.64C4.992 13.5547 5.248 13.48 5.568 13.416C5.52533 13.3733 5.536 13.352 5.6 13.352H5.696C5.71733 13.3733 5.76 13.384 5.824 13.384C5.84533 13.384 5.856 13.3733 5.856 13.352C5.856 13.3307 5.86667 13.32 5.888 13.32H5.952C5.93067 13.3413 5.94133 13.352 5.984 13.352C6.00533 13.352 6.03733 13.3307 6.08 13.288C6.12267 13.224 6.15467 13.192 6.176 13.192C6.19733 13.192 6.208 13.2027 6.208 13.224H6.272C6.29333 13.224 6.31467 13.2133 6.336 13.192C6.35733 13.1493 6.37867 13.128 6.4 13.128H6.464C6.48533 13.1493 6.50667 13.16 6.528 13.16C6.63467 13.1173 6.77333 13.0533 6.944 12.968C7.11467 12.8613 7.31733 12.744 7.552 12.616C7.59467 12.6373 7.65867 12.6373 7.744 12.616C7.82933 12.552 7.94667 12.488 8.096 12.424C8.24533 12.36 8.512 12.2533 8.896 12.104C9.00267 12.04 9.17333 11.9227 9.408 11.752C9.64267 11.5813 9.78133 11.496 9.824 11.496C9.84533 11.496 9.84533 11.5067 9.824 11.528C9.80267 11.5493 9.81333 11.56 9.856 11.56C10.0693 11.56 10.2613 11.4427 10.432 11.208C10.4747 11.1867 10.5493 11.1333 10.656 11.048C10.7627 10.9627 10.8373 10.92 10.88 10.92C10.9013 10.92 10.912 10.9307 10.912 10.952C10.9333 10.9733 10.9547 10.984 10.976 10.984C10.9973 10.984 11.0613 10.9413 11.168 10.856C11.2747 10.7707 11.3387 10.728 11.36 10.728H11.392C11.392 10.7493 11.4027 10.76 11.424 10.76C11.552 10.76 11.7867 10.6 12.128 10.28C12.2773 10.1307 12.3413 10.056 12.32 10.056C12.3627 10.056 12.3733 10.0667 12.352 10.088H12.416C12.5227 10.088 12.6187 10.056 12.704 9.992C13.344 9.608 13.6533 9.416 13.632 9.416H13.696C13.696 9.43733 13.7067 9.448 13.728 9.448C13.6427 9.448 13.9307 9.27733 14.592 8.936C14.6773 8.936 14.8267 8.85067 15.04 8.68C15.0613 8.68 15.0933 8.66933 15.136 8.648C15.1787 8.62667 15.296 8.56267 15.488 8.456C15.7013 8.328 15.808 8.24267 15.808 8.2H15.968C15.9253 8.2 15.9253 8.22133 15.968 8.264C16.1173 8.15733 16.2987 8.02933 16.512 7.88C16.7467 7.73067 17.0027 7.57067 17.28 7.4H17.312C17.3333 7.4 17.4293 7.35733 17.6 7.272L17.984 7.08C18.048 7.03733 18.1013 6.952 18.144 6.824L18.24 6.92C18.2827 6.87733 18.368 6.824 18.496 6.76C18.624 6.67467 18.8373 6.568 19.136 6.44L19.296 6.28C19.3813 6.25867 19.4667 6.22667 19.552 6.184C19.6587 6.14133 19.7653 6.09867 19.872 6.056L20.448 5.608C20.5547 5.58667 20.6933 5.53333 20.864 5.448C21.056 5.36267 21.3333 5.224 21.696 5.032C21.7813 5.032 21.8987 5 22.048 4.936C22.4107 4.72267 22.5813 4.616 22.56 4.616C22.5813 4.616 22.592 4.62667 22.592 4.648H22.624C22.688 4.648 22.912 4.57333 23.296 4.424C23.7227 4.25333 23.9573 4.136 24 4.072C24.0427 4.11467 24.096 4.136 24.16 4.136C24.1813 4.136 24.2027 4.12533 24.224 4.104C24.2667 4.06133 24.2987 4.04 24.32 4.04C24.3413 4.04 24.3733 4.06133 24.416 4.104C24.4587 4.104 24.4907 4.06133 24.512 3.976C24.5333 3.99733 24.5867 4.008 24.672 4.008C24.7147 4.008 24.8 3.976 24.928 3.912C25.0773 3.82667 25.1627 3.784 25.184 3.784H25.344C25.3867 3.80533 25.4293 3.816 25.472 3.816C25.8133 3.816 26.0693 3.73067 26.24 3.56C26.2613 3.58133 26.3253 3.592 26.432 3.592C26.4533 3.592 26.5067 3.592 26.592 3.592C26.6987 3.592 26.848 3.60267 27.04 3.624C27.2533 3.64533 27.4027 3.656 27.488 3.656C27.5947 3.656 27.6587 3.656 27.68 3.656C27.616 3.656 27.648 3.63467 27.776 3.592C27.7547 3.61333 27.744 3.64533 27.744 3.688C27.744 3.77333 27.808 3.848 27.936 3.912C28.064 3.72 28.1707 3.624 28.256 3.624C28.384 3.624 28.7147 3.74133 29.248 3.976C29.248 3.976 29.2587 4.008 29.28 4.072C29.3227 4.11467 29.3653 4.136 29.408 4.136H29.44C29.44 4.11467 29.4507 4.104 29.472 4.104C29.6 4.104 29.7067 4.30667 29.792 4.712C29.8773 4.75467 29.952 4.776 30.016 4.776C30.0373 4.81867 30.0693 4.88267 30.112 4.968C30.176 5.05333 30.2507 5.14933 30.336 5.256C30.336 5.27733 30.336 5.32 30.336 5.384C30.3573 5.42667 30.3787 5.48 30.4 5.544C30.4427 5.69333 30.4747 5.82133 30.496 5.928C30.5173 6.03467 30.5387 6.14133 30.56 6.248V6.6C30.56 6.62133 30.5707 6.664 30.592 6.728C30.6347 6.77067 30.656 6.80267 30.656 6.824C30.656 6.84533 30.6347 6.888 30.592 6.952C30.5707 6.99467 30.56 7.02667 30.56 7.048C30.5813 7.112 30.592 7.25067 30.592 7.464L30.496 7.592C30.4747 7.72 30.4427 7.86933 30.4 8.04C30.3573 8.21067 30.336 8.38133 30.336 8.552C30.208 8.59467 30.1333 8.65867 30.112 8.744C30.0693 8.95733 30.016 9.07467 29.952 9.096C29.888 9.096 29.8667 9.24533 29.888 9.544C29.76 9.672 29.6427 9.832 29.536 10.024C29.5147 10.216 29.4187 10.472 29.248 10.792L29.28 10.92L29.024 11.112C29.024 11.112 29.0453 11.208 29.088 11.4C29.088 11.4213 29.12 11.432 29.184 11.432C29.2693 11.432 29.344 11.3467 29.408 11.176C29.3227 11.176 29.4613 11.1227 29.824 11.016C29.9947 10.9733 30.0693 10.9413 30.048 10.92C30.048 10.8773 30.1227 10.824 30.272 10.76C30.4213 10.6533 30.56 10.5573 30.688 10.472C30.816 10.3653 30.9333 10.28 31.04 10.216C31.104 10.216 31.1893 10.184 31.296 10.12C31.4027 10.0347 31.552 9.93867 31.744 9.832L31.808 9.768L32.192 9.512C32.256 9.49067 32.3307 9.46933 32.416 9.448C32.5227 9.40533 32.64 9.352 32.768 9.288C32.9813 9.11733 33.1413 8.98933 33.248 8.904C33.3547 8.81867 33.408 8.776 33.408 8.776C33.4293 8.776 33.44 8.78667 33.44 8.808H33.504C33.44 8.808 33.6213 8.69067 34.048 8.456C34.3253 8.37067 34.7413 8.15733 35.296 7.816C35.2747 7.88 35.2853 7.912 35.328 7.912C35.4347 7.912 35.6373 7.82667 35.936 7.656C36.1067 7.54933 36.2347 7.51733 36.32 7.56C36.3413 7.56 36.3627 7.54933 36.384 7.528C36.4053 7.50667 36.4587 7.50667 36.544 7.528L36.896 7.24C36.896 7.28267 36.9173 7.304 36.96 7.304H37.088C37.1947 7.304 37.2907 7.272 37.376 7.208C37.4827 7.144 37.5787 7.10133 37.664 7.08H37.76C37.7813 7.10133 37.8133 7.112 37.856 7.112H38.848C38.8693 7.112 38.8907 7.10133 38.912 7.08C38.9547 7.03733 38.9867 7.016 39.008 7.016C39.0293 7.016 39.0293 7.03733 39.008 7.08C39.008 7.10133 39.0293 7.112 39.072 7.112L39.424 7.016C39.5093 7.016 39.7973 7.18667 40.288 7.528L40.384 7.464L40.672 7.912C40.8 7.95467 40.8747 7.976 40.896 7.976V8.2C40.9173 8.264 40.928 8.328 40.928 8.392C40.928 8.34933 40.8533 8.43467 40.704 8.648V8.872C40.6827 8.89333 40.6613 8.91467 40.64 8.936C40.6187 8.95733 40.5973 8.98933 40.576 9.032C40.576 9.11733 40.576 9.21333 40.576 9.32C40.576 9.42667 40.5653 9.55467 40.544 9.704L40.192 10.6L39.36 11.912C39.3173 11.9547 39.2533 12.0187 39.168 12.104C39.104 12.168 39.0933 12.264 39.136 12.392C38.944 12.4773 38.7627 12.6587 38.592 12.936L38.624 13.288L38.72 13.192C38.7627 13.1493 38.8267 13.1067 38.912 13.064C39.0187 13 39.1253 12.9253 39.232 12.84C39.2533 12.7973 39.3173 12.7227 39.424 12.616L40.352 12.04C40.7147 11.848 40.8533 11.752 40.768 11.752H40.832C40.832 11.7733 40.8427 11.784 40.864 11.784C40.8853 11.784 40.9173 11.7627 40.96 11.72C41.024 11.6773 41.0667 11.656 41.088 11.656C41.1093 11.656 41.12 11.6667 41.12 11.688H41.184C41.2053 11.688 41.2267 11.6773 41.248 11.656C41.2907 11.6347 41.3227 11.624 41.344 11.624C41.3653 11.624 41.5147 11.5707 41.792 11.464C42.0693 11.3573 42.2187 11.304 42.24 11.304C42.2613 11.304 42.304 11.3253 42.368 11.368C42.432 11.3893 42.4853 11.4 42.528 11.4C42.5493 11.4 42.6133 11.3893 42.72 11.368C42.8267 11.3467 42.9013 11.336 42.944 11.336C43.136 11.336 43.3707 11.464 43.648 11.72C43.6907 11.784 43.7547 11.8693 43.84 11.976C43.9467 12.0613 44.0533 12.1573 44.16 12.264C44.1813 12.3493 44.2133 12.424 44.256 12.488C44.2987 12.552 44.3413 12.616 44.384 12.68L44.672 13.864C44.672 13.8853 44.6933 13.96 44.736 14.088C44.8 14.1947 44.832 14.2587 44.832 14.28C44.832 14.28 44.7893 14.3547 44.704 14.504L44.64 14.44L44.576 14.472L44.512 14.408C44.4053 14.4507 44.352 14.5253 44.352 14.632C44.352 14.6533 44.3627 14.696 44.384 14.76C44.4267 14.824 44.448 14.8773 44.448 14.92V15.592C44.4907 15.656 44.5333 15.7413 44.576 15.848C44.6187 15.9333 44.6613 16.0507 44.704 16.2C44.7253 16.2853 44.7467 16.392 44.768 16.52C44.7893 16.6267 44.8213 16.7547 44.864 16.904C44.928 16.968 45.0027 17.0533 45.088 17.16C45.1947 17.2667 45.3013 17.4053 45.408 17.576C45.5147 17.7467 45.632 17.864 45.76 17.928H45.856C45.8987 17.928 45.9307 17.9173 45.952 17.896C45.9947 17.8747 46.0373 17.864 46.08 17.864L46.176 17.928H46.56C46.688 17.928 46.752 18.0027 46.752 18.152C46.752 18.28 46.6773 18.3867 46.528 18.472C46.3787 18.5573 46.272 18.6 46.208 18.6C46.1867 18.6 46.0587 18.5147 45.824 18.344C45.6107 18.152 45.472 18.056 45.408 18.056C45.344 18.056 45.3333 18.0773 45.376 18.12C45.3547 18.0987 45.344 18.0453 45.344 17.96C45.28 17.9387 45.0773 17.6613 44.736 17.128L44.32 16.68L44.128 16.104L43.872 15.88C43.9147 15.8373 43.9147 15.7947 43.872 15.752C43.8293 15.7093 43.776 15.5813 43.712 15.368L43.616 15.08L43.2 14.536L42.848 13.832C42.848 13.832 42.816 13.7573 42.752 13.608C42.7093 13.4373 42.6347 13.2773 42.528 13.128C42.4213 12.9787 42.304 12.904 42.176 12.904C42.1333 12.904 42.112 12.9147 42.112 12.936H42.08C42.144 12.936 42.0373 12.8613 41.76 12.712C41.7387 12.6693 41.6427 12.6373 41.472 12.616L41.344 12.456L41.248 12.648L41.024 12.552C40.9813 12.552 40.9387 12.5733 40.896 12.616C40.8747 12.6373 40.8533 12.648 40.832 12.648C40.8107 12.648 40.8 12.6373 40.8 12.616H40.768C40.7467 12.616 40.7147 12.648 40.672 12.712C40.6293 12.776 40.5867 12.808 40.544 12.808C40.48 12.808 40.448 12.7867 40.448 12.744L40.064 12.968L39.936 12.936L39.104 13.448H39.04C39.04 13.4267 39.0293 13.416 39.008 13.416C39.0507 13.416 38.8267 13.6293 38.336 14.056C38.1227 14.1627 37.9733 14.2693 37.888 14.376C37.76 14.4827 37.6 14.6213 37.408 14.792C37.216 14.9413 36.9813 15.1227 36.704 15.336C36.4907 15.5067 36.3413 15.6453 36.256 15.752C36.192 15.8587 36.1067 15.9867 36 16.136C35.9787 16.136 35.936 16.1893 35.872 16.296C35.808 16.4027 35.744 16.4987 35.68 16.584C35.7013 16.5627 35.68 16.552 35.616 16.552C35.68 16.552 35.648 16.5733 35.52 16.616L35.168 17.096C35.1253 17.1173 35.0613 17.1493 34.976 17.192C34.8907 17.2133 34.7733 17.2667 34.624 17.352C34.56 17.288 34.464 17.256 34.336 17.256L34.272 17.032C34.272 16.776 34.3467 16.648 34.496 16.648C34.5173 16.648 34.5173 16.6587 34.496 16.68C34.496 16.7013 34.5173 16.712 34.56 16.712L35.008 16.296L35.328 15.912C35.3707 15.8907 35.4133 15.8587 35.456 15.816C35.52 15.7733 35.5947 15.72 35.68 15.656C35.7227 15.656 35.7547 15.6453 35.776 15.624C35.8613 15.5387 35.9467 15.432 36.032 15.304C36.1387 15.176 36.256 15.0267 36.384 14.856C36.384 14.792 36.3947 14.7387 36.416 14.696C36.6293 14.44 36.7573 14.2267 36.8 14.056L37.12 13.672L37.312 13.16L37.696 12.552L37.952 12.04C38.08 11.7413 38.208 11.4 38.336 11.016C38.4853 10.632 38.6347 10.1947 38.784 9.704C38.784 9.64 38.7947 9.59733 38.816 9.576C38.816 9.42667 38.8053 9.37333 38.784 9.416C38.784 9.33067 38.7733 9.26667 38.752 9.224C38.752 9.16 38.7413 9.10667 38.72 9.064V8.872C38.6987 8.808 38.6667 8.73333 38.624 8.648C38.5813 8.56267 38.5387 8.46667 38.496 8.36C38.496 8.36 38.432 8.33867 38.304 8.296C38.304 8.296 38.2827 8.27467 38.24 8.232C38.1973 8.168 38.1653 8.136 38.144 8.136H38.08C38.08 8.15733 38.0693 8.168 38.048 8.168C38.048 8.168 37.9733 8.12533 37.824 8.04C37.8027 8.04 37.728 8.072 37.6 8.136C37.472 8.2 37.3973 8.232 37.376 8.232C37.3333 8.232 37.3227 8.22133 37.344 8.2H37.28C37.2587 8.2 37.216 8.22133 37.152 8.264C37.088 8.30667 37.0347 8.328 36.992 8.328L36.928 8.2L36.48 8.296C36.3307 8.33867 36.224 8.38133 36.16 8.424C36.096 8.44533 36.0533 8.456 36.032 8.456C36.0107 8.456 36 8.44533 36 8.424H35.968C35.9253 8.424 35.872 8.456 35.808 8.52L35.264 8.712C35.0933 8.62667 34.9653 8.584 34.88 8.584C34.8373 8.584 34.7733 8.62667 34.688 8.712C34.6667 8.776 34.6133 8.84 34.528 8.904C34.4427 8.94667 34.3787 9 34.336 9.064C34.3147 9.064 34.2827 9.05333 34.24 9.032C34.1973 9.01067 34.1547 9 34.112 9C34.0693 9.04267 34.0587 9.096 34.08 9.16H34.016C33.8667 9.16 33.696 9.224 33.504 9.352C33.3333 9.48 33.0347 9.62933 32.608 9.8C32.4587 9.88533 32.2453 10.024 31.968 10.216C31.712 10.408 31.5733 10.504 31.552 10.504C31.5093 10.504 31.488 10.4933 31.488 10.472H31.424C31.4027 10.472 31.2107 10.6213 30.848 10.92C30.8053 10.9413 30.752 10.9627 30.688 10.984C30.624 11.0053 30.5387 11.0267 30.432 11.048C30.368 11.2827 30.0267 11.4853 29.408 11.656C29.3653 11.784 29.1947 11.9227 28.896 12.072C28.896 12.0933 28.8747 12.1467 28.832 12.232C28.5547 12.3173 28.3413 12.4667 28.192 12.68C28.192 12.7653 28.1387 12.872 28.032 13C27.8187 13.2133 27.6907 13.4373 27.648 13.672C27.4347 14.0133 27.3387 14.1733 27.36 14.152C27.3813 14.1733 27.3813 14.184 27.36 14.184V14.152C27.3387 14.152 27.3067 14.1413 27.264 14.12L27.104 14.312C27.104 14.3547 27.0933 14.44 27.072 14.568C27.0507 14.6747 27.04 14.7493 27.04 14.792L26.912 14.696C26.8907 14.696 26.8693 14.6853 26.848 14.664L26.656 14.984C26.6347 14.984 26.6027 15.016 26.56 15.08C26.368 15.1653 26.2827 15.3147 26.304 15.528L25.92 15.88C25.8987 15.9013 25.8773 15.9547 25.856 16.04C25.8347 16.104 25.8027 16.2 25.76 16.328C25.7173 16.3493 25.664 16.3813 25.6 16.424C25.5573 16.4667 25.4933 16.5093 25.408 16.552L25.28 16.904C25.1947 16.904 25.0773 17.0107 24.928 17.224C24.8853 17.2667 24.832 17.32 24.768 17.384C24.7253 17.448 24.6827 17.544 24.64 17.672C24.192 17.864 23.936 18.184 23.872 18.632C23.7227 18.6533 23.5947 18.7493 23.488 18.92C23.488 18.984 23.456 19.1013 23.392 19.272C23.3067 19.3147 23.2107 19.3787 23.104 19.464C23.0187 19.528 22.912 19.6133 22.784 19.72L22.496 20.104C22.4533 20.1467 22.4 20.2 22.336 20.264C22.2933 20.3067 22.2507 20.3387 22.208 20.36C22.144 20.4453 22.1333 20.5093 22.176 20.552C22.1333 20.5733 22.08 20.5947 22.016 20.616C21.952 20.6373 21.8773 20.6693 21.792 20.712L21.696 21.032C21.696 21.096 21.632 21.1493 21.504 21.192C21.376 21.448 21.2693 21.576 21.184 21.576C21.1413 21.576 21.1093 21.5653 21.088 21.544C20.9813 21.7573 20.8213 22.0027 20.608 22.28C20.5867 22.3013 20.576 22.3333 20.576 22.376C20.4693 22.376 20.384 22.408 20.32 22.472C20.256 22.5573 20.2027 22.6 20.16 22.6H20.128C20.128 22.5787 20.1173 22.568 20.096 22.568C20.096 22.568 20.0747 22.6 20.032 22.664C19.9893 22.728 19.9253 22.8347 19.84 22.984L19.68 23.24C19.552 23.2827 19.4773 23.3467 19.456 23.432C19.328 23.4747 19.2213 23.56 19.136 23.688C19.072 23.816 19.0293 23.88 19.008 23.88H18.944C18.9227 23.8587 18.9013 23.848 18.88 23.848C18.7947 23.848 18.72 23.9333 18.656 24.104C18.5067 24.168 18.4107 24.2533 18.368 24.36L17.792 24.84C17.5573 24.9467 17.3973 25.064 17.312 25.192V25.224C17.312 25.288 17.28 25.3733 17.216 25.48C17.1733 25.5867 17.0133 25.7253 16.736 25.896ZM5.28 8.584L5.152 8.456L5.184 8.392L5.312 8.52L5.28 8.584ZM1.408 13.992H1.44C1.44 13.992 1.42933 13.992 1.408 13.992ZM16.096 26.312L16.192 25.992C16.2347 25.9707 16.288 25.96 16.352 25.96C16.4587 25.96 16.512 26.056 16.512 26.248C16.2773 26.3333 16.1387 26.3547 16.096 26.312ZM49.403 21.192L49.243 21.16C49.243 21.1387 49.2003 21.128 49.115 21.128C49.051 21.128 49.0297 21.1173 49.051 21.096V20.904C48.8803 20.904 48.6883 20.7653 48.475 20.488C48.5817 20.2533 48.7097 20.136 48.859 20.136C48.859 20.136 48.8803 20.1147 48.923 20.072C48.987 20.0293 49.0723 19.9653 49.179 19.88V19.784C49.179 19.7413 49.179 19.6987 49.179 19.656C49.2003 19.592 49.2217 19.528 49.243 19.464C49.3497 19.4213 49.4883 19.3467 49.659 19.24C49.851 19.1333 50.0857 19.0053 50.363 18.856C50.8537 18.856 51.0457 18.92 50.939 19.048C51.067 19.304 51.099 19.464 51.035 19.528V19.56C51.035 19.6453 50.971 19.8053 50.843 20.04C50.8217 20.0827 50.843 20.1573 50.907 20.264C50.843 20.3067 50.7577 20.392 50.651 20.52C50.5657 20.648 50.4483 20.808 50.299 21C50.235 21.1067 50.1177 21.16 49.947 21.16C49.9257 21.16 49.8937 21.1387 49.851 21.096C49.8297 21.0747 49.7977 21.064 49.755 21.064C49.7337 21.064 49.6697 21.0853 49.563 21.128C49.4777 21.1707 49.4243 21.192 49.403 21.192ZM63.1203 23.08C62.8003 23.08 62.6616 23.0267 62.7043 22.92L62.3203 23.048L62.1603 22.92C62.2029 22.92 62.1709 22.9093 62.0642 22.888C61.9576 22.888 61.7869 22.8773 61.5523 22.856H61.3603C61.2109 22.856 61.0829 22.888 60.9763 22.952L60.2723 22.664L60.1443 22.696L59.7603 22.536L59.6643 22.6L59.0883 22.248L58.8003 22.344L58.7043 22.088C58.5763 21.9173 58.4803 21.9173 58.4163 22.088L58.1923 21.736C58.1069 21.864 58.0109 21.9067 57.9043 21.864L57.6483 21.416L57.5203 21.576C57.3709 21.576 57.3069 21.48 57.3283 21.288C56.9869 20.968 56.6669 20.648 56.3683 20.328C56.0909 20.008 55.8243 19.688 55.5683 19.368L55.6003 19.304C55.5789 19.1973 55.5363 19.0587 55.4723 18.888C55.4296 18.7173 55.3656 18.5253 55.2803 18.312L55.1523 18.248L55.0563 17.864C54.9069 17.864 54.8323 17.2347 54.8323 15.976L54.9283 15.112L55.0243 15.144L55.1843 14.344L55.3123 14.248C55.3336 13.544 55.4829 12.904 55.7603 12.328C55.9309 11.9653 56.2829 11.4213 56.8163 10.696L56.8483 10.536C56.9763 10.4293 57.1256 10.3013 57.2963 10.152C57.4883 10.0027 57.6909 9.82133 57.9043 9.608V9.48C57.9043 9.33067 58.2563 8.968 58.9603 8.392C58.9603 8.24267 59.0669 8.072 59.2803 7.88L59.4083 7.976C59.4936 7.976 59.5469 7.89067 59.5683 7.72C59.5896 7.54933 59.6216 7.44267 59.6643 7.4C59.8776 7.18667 60.1336 6.952 60.4323 6.696C60.7309 6.44 61.0829 6.17333 61.4883 5.896V5.768L61.9363 5.384L61.9683 5.448L63.2803 4.552L63.4083 4.616C63.4936 4.616 63.5363 4.57333 63.5363 4.488L63.6643 4.52C64.0056 4.136 64.3363 3.86933 64.6563 3.72L64.7843 3.784L65.0723 3.624C65.0723 3.624 65.0936 3.61333 65.1363 3.592C65.2003 3.54933 65.2856 3.50667 65.3923 3.464L67.8563 2.6C68.2189 2.472 68.6243 2.376 69.0723 2.312C69.5203 2.248 70.0109 2.20533 70.5443 2.184L70.8643 2.056C71.0776 2.01333 71.3123 1.98133 71.5683 1.96C71.8456 1.93867 72.1336 1.91733 72.4323 1.896L73.5203 1.992C73.9256 2.12 74.1069 2.152 74.0643 2.088C74.6403 2.23733 75.0136 2.41867 75.1843 2.632L75.2483 2.6C75.4616 2.6 75.5789 2.67467 75.6003 2.824C75.8776 2.84533 76.1443 3.03733 76.4003 3.4C76.9336 2.78133 77.4136 2.216 77.8403 1.704C78.2669 1.17067 78.6296 0.690666 78.9283 0.264C79.0136 0.903999 78.2989 2.152 76.7843 4.008L76.8483 4.232V4.328C77.0189 4.62667 77.1043 5 77.1043 5.448C77.1043 5.448 77.0829 5.512 77.0403 5.64C76.9976 5.74667 77.0083 5.81067 77.0723 5.832L76.7843 6.984C76.7203 7.21867 76.6563 7.432 76.5923 7.624C76.5283 7.79467 76.4429 7.93333 76.3363 8.04C76.3149 8.06133 76.2723 8.11467 76.2083 8.2C76.1656 8.264 76.1016 8.37067 76.0163 8.52C75.8669 8.73333 75.6749 8.968 75.4403 9.224C75.2269 9.45867 74.9496 9.69333 74.6083 9.928C74.3309 10.1413 74.0536 10.344 73.7763 10.536C73.5203 10.728 73.2536 10.92 72.9763 11.112L72.8163 11.048L72.5603 11.368C72.5389 11.3467 72.5069 11.336 72.4643 11.336C72.4216 11.336 72.3683 11.3467 72.3043 11.368C72.2403 11.3893 72.1869 11.3893 72.1443 11.368C71.4189 11.9227 71.0456 12.168 71.0243 12.104L70.0323 12.712C69.8829 12.7973 69.5629 12.9253 69.0723 13.096C68.6029 13.2453 68.3469 13.288 68.3043 13.224C68.0696 13.288 67.8029 13.4267 67.5043 13.64H67.3123C66.5869 14.3653 66.1923 14.824 66.1283 15.016L65.8403 15.208C65.2429 15.592 64.7629 15.7627 64.4003 15.72C64.2509 15.784 64.1763 15.6987 64.1763 15.464C64.1763 15.1013 64.3789 14.7173 64.7843 14.312C64.8483 14.1413 64.9229 14.0133 65.0083 13.928C64.9016 13.9493 64.7629 13.9813 64.5923 14.024C64.4216 14.0667 64.2189 14.1093 63.9843 14.152C63.7923 14.1733 63.6749 14.1627 63.6323 14.12C63.6323 14.056 63.7603 13.9813 64.0163 13.896L65.3283 13.672C65.4776 13.5867 65.5843 13.5547 65.6483 13.576L65.9363 13.48L66.0323 13.512C66.2243 13.4053 66.5123 13.32 66.8963 13.256C68.7309 11.6773 70.1069 10.3973 71.0243 9.416C71.8563 8.52 72.6136 7.688 73.2963 6.92C74.0003 6.152 74.6296 5.45867 75.1843 4.84L74.9923 4.584C74.9923 4.17867 74.9069 3.976 74.7363 3.976C74.6723 3.976 74.6296 3.98667 74.6083 4.008L74.2883 3.72L74.2243 3.752L73.3283 3.144L73.2963 3.016L73.0403 3.048C72.8909 2.94133 72.7309 2.89867 72.5603 2.92H72.4003C72.1443 2.92 71.9523 2.856 71.8243 2.728L71.6003 2.792C71.3229 2.728 71.0883 2.696 70.8963 2.696L68.0803 3.144C67.5469 3.22933 67.0563 3.34667 66.6083 3.496C66.1603 3.64533 65.7443 3.80533 65.3603 3.976C65.2963 4.04 65.1363 4.11467 64.8803 4.2C64.7949 4.24267 64.6243 4.33867 64.3683 4.488C64.1123 4.63733 63.7816 4.84 63.3763 5.096C62.9709 5.33067 62.6403 5.53333 62.3843 5.704C62.1496 5.87467 61.9789 6.00267 61.8723 6.088L61.2963 6.6L61.1683 6.664C60.9549 6.87733 60.6776 7.144 60.3363 7.464C60.0163 7.76267 59.6429 8.11467 59.2163 8.52C59.0029 8.73333 58.7789 9.08533 58.5443 9.576H58.4803C58.4163 9.576 58.3629 9.64 58.3203 9.768C58.2989 9.91733 58.2989 10.0133 58.3203 10.056L57.9683 10.536C57.9043 10.6213 57.8616 10.8027 57.8403 11.08C57.3923 11.336 57.1683 11.6987 57.1683 12.168C56.9336 12.4667 56.8056 12.616 56.7843 12.616L56.9763 13.064L56.7203 13.576C56.5923 14.2373 56.5496 14.6427 56.5923 14.792C56.4643 14.92 56.4429 15.08 56.5283 15.272L56.2723 15.624C56.4429 16.0933 56.5283 16.296 56.5283 16.232C56.5283 16.3173 56.4749 16.36 56.3683 16.36L56.6243 16.712L56.4323 17.16L56.4643 17.48H56.6883C56.9443 18.3973 57.1363 18.8347 57.2643 18.792C57.4563 19.1973 57.7123 19.4533 58.0323 19.56V19.816C58.0749 19.8373 58.1603 19.912 58.2883 20.04C58.4163 20.168 58.5656 20.3493 58.7363 20.584L58.9283 20.456L59.1523 20.488L59.4083 20.776V20.84L59.6323 21.128L59.9203 21.032C60.1123 21.16 60.2083 21.192 60.2083 21.128L60.5923 21.288C60.6349 21.2453 60.6562 21.224 60.6562 21.224C60.6989 21.224 60.7736 21.3413 60.8802 21.576H61.1683L61.2643 21.736C61.6483 21.608 61.9789 21.544 62.2563 21.544C62.6829 21.544 62.9923 21.672 63.1843 21.928C63.2056 21.9067 63.2376 21.896 63.2803 21.896C63.3869 21.896 63.5043 21.928 63.6323 21.992C63.7816 22.056 63.8669 22.088 63.8883 22.088L63.9523 22.056L64.5923 21.992L64.7203 22.056L64.8803 21.8C64.9869 21.8853 65.1683 21.9067 65.4243 21.864L66.0003 21.768C66.0003 21.768 66.0429 21.7467 66.1283 21.704C66.2349 21.6827 66.3843 21.6293 66.5763 21.544C66.6403 21.608 66.7256 21.64 66.8323 21.64C67.0883 21.64 67.2163 21.64 67.2163 21.64L67.9523 21.384L68.0163 21.48L68.4323 21.224C68.4963 21.2453 68.5603 21.224 68.6243 21.16L69.0723 21.096L69.3923 21.224L69.6803 21.192C69.6803 21.1493 69.6803 21.096 69.6803 21.032C69.7016 20.9893 69.7229 20.936 69.7443 20.872L69.8723 20.904L70.2563 20.584L70.4483 20.616L71.1523 20.36L71.2803 20.456L71.8563 20.072L71.9523 20.136L72.5923 19.72L72.6562 19.752C72.9549 19.624 73.3389 19.368 73.8083 18.984L73.8403 19.048C74.6723 18.344 75.9096 17.3627 77.5523 16.104L77.5843 16.168C77.7549 16.0187 77.9469 15.8373 78.1603 15.624C78.3736 15.4107 78.6189 15.1547 78.8963 14.856L78.9923 14.888L79.6323 14.088L79.7923 14.12C79.7709 14.248 79.6963 14.3867 79.5683 14.536C79.4403 14.664 79.3763 14.76 79.3763 14.824C79.3763 14.8667 79.2803 14.984 79.0883 15.176C78.9176 15.3467 78.8109 15.432 78.7683 15.432C78.7256 15.432 78.0109 16.0507 76.6243 17.288C75.2589 18.504 74.5016 19.112 74.3523 19.112C74.1603 19.3253 73.8083 19.5493 73.2963 19.784C72.8269 19.9973 72.4856 20.2107 72.2723 20.424L72.2403 20.36L72.0803 20.392L71.2803 20.872L71.1523 20.936C70.8749 21.0853 70.5656 21.2347 70.2243 21.384C69.9043 21.5333 69.5309 21.6613 69.1042 21.768L69.0403 21.704L68.4643 22.056L68.3683 22.024C68.0909 22.0667 67.7603 22.1307 67.3763 22.216C67.0136 22.3227 66.5869 22.4507 66.0963 22.6L65.9683 22.568C65.8189 22.5893 65.6589 22.6107 65.4883 22.632C65.3389 22.6533 65.1683 22.6747 64.9763 22.696C64.9763 22.7387 64.9443 22.76 64.8803 22.76C64.7949 22.76 64.7203 22.7493 64.6563 22.728C64.6136 22.7067 64.6029 22.696 64.6243 22.696C64.5176 22.7173 64.2829 22.7813 63.9203 22.888C63.5789 23.016 63.3123 23.08 63.1203 23.08ZM68.2083 12.84L68.4963 12.648L68.5923 12.744L69.4563 12.264L69.5843 12.328L69.8723 12.072L70.0003 12.136L70.2563 11.976L70.3203 12.04C70.8109 11.5493 71.2589 11.2933 71.6643 11.272L72.0483 11.112L72.0163 10.952L72.2083 10.696C72.9549 10.2693 73.6909 9.59733 74.4163 8.68C75.0563 7.86933 75.3976 7.29333 75.4403 6.952C75.5256 6.97333 75.5683 6.728 75.5683 6.216C75.5683 6.06667 75.5576 5.93867 75.5363 5.832C75.5363 5.704 75.5256 5.58667 75.5043 5.48C75.0776 5.928 74.6083 6.42933 74.0963 6.984C73.6056 7.53867 73.0616 8.14667 72.4643 8.808C72.3363 8.95733 71.9203 9.37333 71.2163 10.056C70.5123 10.7173 69.5096 11.6453 68.2083 12.84ZM82.4795 23.272C82.3728 23.2507 82.3088 23.1227 82.2875 22.888C82.2662 22.6747 82.2448 22.5467 82.2235 22.504V22.216C82.2235 21.8533 82.2235 21.5333 82.2235 21.256C82.2448 20.9787 82.2768 20.7653 82.3195 20.616L82.4155 20.264L82.6715 19.24C82.6502 19.2187 82.6395 19.176 82.6395 19.112L82.7035 18.632C82.7248 18.6107 82.7888 18.4293 82.8955 18.088L82.8635 18.056V18.024C82.7568 18.0667 82.6182 18.216 82.4475 18.472C82.4048 18.4933 82.3515 18.5253 82.2875 18.568C82.2448 18.6107 82.1915 18.7067 82.1275 18.856L81.6475 19.432C81.6262 19.4533 81.5835 19.4853 81.5195 19.528C81.4555 19.5707 81.3595 19.656 81.2315 19.784C81.1888 19.784 81.1355 19.7947 81.0715 19.816C80.9008 19.9867 80.7622 20.0933 80.6555 20.136C80.6128 20.2213 80.5488 20.3173 80.4635 20.424C80.3782 20.5307 80.2822 20.6373 80.1755 20.744V20.552C80.1968 20.5307 80.1755 20.52 80.1115 20.52C80.0902 20.52 79.9942 20.616 79.8235 20.808L79.8875 20.872L80.1115 20.68C80.0048 20.8933 79.9195 21.0213 79.8555 21.064C79.1728 21.5547 78.7248 21.8 78.5115 21.8C78.4902 21.8 78.4688 21.7893 78.4475 21.768C78.4262 21.7467 78.4048 21.736 78.3835 21.736C78.3622 21.736 78.3408 21.7467 78.3195 21.768C78.3195 21.8107 78.3088 21.832 78.2875 21.832C78.2875 21.832 78.2768 21.832 78.2555 21.832H78.2875C78.2875 21.832 78.2875 21.8213 78.2875 21.8C78.2875 21.7787 78.1808 21.6933 77.9675 21.544C77.9248 21.544 77.8502 21.5227 77.7435 21.48C77.6582 21.4373 77.5195 21.3307 77.3275 21.16L77.1035 20.424V20.328C77.1888 20.1787 77.2208 20.0293 77.1995 19.88C77.1995 19.8587 77.1888 19.8373 77.1675 19.816C77.1675 19.7093 77.1675 19.5707 77.1675 19.4C77.1888 19.2293 77.2102 19.0373 77.2315 18.824C77.2955 18.504 77.3702 18.3547 77.4555 18.376C77.3915 18.2693 77.4022 18.1413 77.4875 17.992C77.4875 17.9707 77.4982 17.96 77.5195 17.96C77.5622 17.96 77.5942 17.9493 77.6155 17.928C77.5728 17.8427 77.5515 17.7893 77.5515 17.768C77.5515 17.6827 77.5942 17.5973 77.6795 17.512C77.7008 17.32 77.7115 17.192 77.7115 17.128C77.7328 17.064 77.7435 17.0533 77.7435 17.096C77.7435 17.096 77.7542 17.0747 77.7755 17.032C77.7968 16.9893 77.8182 16.9573 77.8395 16.936C77.7755 16.872 77.7435 16.8187 77.7435 16.776C77.7435 16.7547 77.7542 16.7333 77.7755 16.712C77.8182 16.6693 77.8395 16.6373 77.8395 16.616C77.9462 16.616 78.0422 16.5733 78.1275 16.488C78.1275 16.4667 78.1168 16.456 78.0955 16.456C78.0742 16.3707 78.1168 16.2853 78.2235 16.2C78.3302 16.0933 78.3942 16.0187 78.4155 15.976C78.4155 15.9547 78.3728 15.944 78.2875 15.944V15.816C78.2662 15.7733 78.2555 15.7307 78.2555 15.688L78.3515 15.592C78.3942 15.6133 78.4262 15.6133 78.4475 15.592C78.4262 15.5493 78.4155 15.4747 78.4155 15.368C78.4155 15.1547 78.3835 15.048 78.3195 15.048C78.2342 15.048 77.7648 15.2827 76.9115 15.752C76.9115 15.688 76.9328 15.624 76.9755 15.56C77.0182 15.4747 77.0288 15.4213 77.0075 15.4C77.1782 15.3147 77.2742 15.2507 77.2955 15.208C77.3382 15.1653 77.3915 15.144 77.4555 15.144C77.4768 15.144 77.5088 15.1227 77.5515 15.08C77.5728 15.0587 77.5835 15.048 77.5835 15.048C77.5835 15.0267 77.6048 15.016 77.6475 15.016C77.6688 15.016 77.6902 15.0267 77.7115 15.048L77.9995 14.952C78.0635 14.888 78.0848 14.856 78.0635 14.856C78.1275 14.856 78.1595 14.8453 78.1595 14.824H78.1915C78.2768 14.824 78.3515 14.7707 78.4155 14.664H78.4795C78.5008 14.6427 78.5115 14.6427 78.5115 14.664C78.5115 14.6853 78.5222 14.6853 78.5435 14.664C78.5648 14.6427 78.5862 14.632 78.6075 14.632C78.7568 14.632 78.9062 14.568 79.0555 14.44C79.1835 14.4827 79.2475 14.504 79.2475 14.504C79.2688 14.504 79.3008 14.4827 79.3435 14.44C79.3862 14.44 79.4502 14.4827 79.5355 14.568C79.6208 14.568 79.6635 14.536 79.6635 14.472C79.6635 14.472 79.7275 14.4933 79.8555 14.536C79.8768 14.6213 79.9408 14.696 80.0475 14.76C80.0475 14.8667 80.1328 15.0587 80.3035 15.336C80.2822 15.3573 80.2395 15.4 80.1755 15.464C80.1115 15.528 80.0262 15.6347 79.9195 15.784C79.9195 15.848 79.9088 15.9013 79.8875 15.944L79.4715 16.392C79.4502 16.584 79.2902 16.872 78.9915 17.256C78.9915 17.4053 78.9275 17.5973 78.7995 17.832C78.6928 18.0453 78.6395 18.1733 78.6395 18.216C78.4475 18.3013 78.3515 18.504 78.3515 18.824C78.3515 18.8667 78.3728 18.9413 78.4155 19.048C78.4582 19.1333 78.4795 19.1867 78.4795 19.208C78.4795 19.2293 78.4582 19.272 78.4155 19.336C78.3942 19.4 78.3835 19.4533 78.3835 19.496V19.656H78.3515L78.3835 19.688C78.3835 19.7093 78.3835 19.7627 78.3835 19.848C78.3835 19.912 78.3942 19.9973 78.4155 20.104C78.4155 20.104 78.4368 20.1253 78.4795 20.168C78.5435 20.3387 78.5968 20.424 78.6395 20.424C78.6822 20.488 78.6822 20.552 78.6395 20.616C78.7248 20.6587 78.7462 20.7227 78.7035 20.808L78.7995 20.904C78.8848 20.8613 78.9915 20.7973 79.1195 20.712C79.2688 20.6267 79.4288 20.52 79.5995 20.392C79.7062 20.4987 79.7702 20.552 79.7915 20.552C79.8128 20.552 79.8342 20.52 79.8555 20.456C80.0902 20.328 80.2395 20.2107 80.3035 20.104C80.4955 19.9973 80.6982 19.816 80.9115 19.56C80.9115 19.5813 80.9222 19.6027 80.9435 19.624H81.0075L81.1035 19.432C81.1888 19.3893 81.3488 19.2507 81.5835 19.016L81.8075 18.792C81.8075 18.6853 81.8715 18.6 81.9995 18.536C82.1488 18.4507 82.4155 18.1733 82.7995 17.704C82.7995 17.7253 82.8102 17.7467 82.8315 17.768C82.9595 17.576 83.0448 17.4053 83.0875 17.256C83.0875 17.2133 83.0768 17.1707 83.0555 17.128C83.0555 17.0427 83.0875 16.9253 83.1515 16.776C83.2155 16.6053 83.2688 16.4347 83.3115 16.264L83.4395 16.168C83.6955 16.0613 83.7915 15.8053 83.7275 15.4H83.8235C83.8448 15.4 83.8875 15.3573 83.9515 15.272C84.0368 15.1653 84.1222 15.112 84.2075 15.112C84.2288 15.112 84.2502 15.1227 84.2715 15.144C84.3142 15.1653 84.3462 15.176 84.3675 15.176C84.3888 15.176 84.4208 15.1227 84.4635 15.016C84.5702 15.0373 84.6342 15.1013 84.6555 15.208C84.6555 15.208 84.6768 15.1547 84.7195 15.048C84.7835 15.0053 84.8475 14.9307 84.9115 14.824L84.9755 14.568L85.1995 14.216C85.2848 14.1733 85.3488 14.12 85.3915 14.056C85.4342 14.0133 85.4768 13.992 85.5195 13.992C85.6262 13.992 85.6582 14.088 85.6155 14.28L85.4875 14.408C85.3808 14.5147 85.2742 14.7067 85.1675 14.984C85.1675 14.984 85.1568 14.9947 85.1355 15.016C85.1142 15.016 85.0822 15.0267 85.0395 15.048C85.0395 15.112 84.9862 15.1973 84.8795 15.304L85.2635 15.656C85.1995 15.72 85.1568 15.816 85.1355 15.944C85.0502 16.008 84.9115 16.1893 84.7195 16.488C84.6982 16.5307 84.6768 16.584 84.6555 16.648C84.6342 16.712 84.6022 16.7973 84.5595 16.904L84.2395 17.32L84.2715 17.448L84.1755 17.384C84.1328 17.4693 84.0902 17.5653 84.0475 17.672C84.0048 17.7573 83.9622 17.8533 83.9195 17.96C83.8768 18.0453 83.7915 18.152 83.6635 18.28V18.344C83.6208 18.3867 83.5675 18.536 83.5035 18.792C83.4822 18.8133 83.4502 18.8773 83.4075 18.984C83.3648 19.0693 83.2902 19.1867 83.1835 19.336C83.2048 19.3573 83.2155 19.4107 83.2155 19.496L83.0555 19.688C82.9915 19.9227 82.9168 20.2213 82.8315 20.584C82.7675 20.9253 82.6928 21.3307 82.6075 21.8C82.5862 21.9067 82.5648 22.0027 82.5435 22.088C82.5435 22.1947 82.5222 22.2907 82.4795 22.376L82.5115 22.504V22.92C82.4688 23.0907 82.4582 23.208 82.4795 23.272ZM86.0553 21.512C86.0339 21.512 86.0019 21.4907 85.9593 21.448C85.9379 21.4267 85.9059 21.416 85.8633 21.416C85.8846 21.416 85.8419 21.4373 85.7353 21.48L85.3513 21V20.2L85.4153 20.136V20.072C85.4153 20.0293 85.4259 19.976 85.4473 19.912C85.4899 19.848 85.5219 19.7733 85.5433 19.688C85.5219 19.6667 85.5113 19.624 85.5113 19.56C85.5113 19.4533 85.5859 19.3573 85.7353 19.272C85.7139 19.208 85.7139 19.1013 85.7353 18.952L85.8313 18.76C85.8739 18.696 85.8633 18.632 85.7993 18.568L85.9273 17.864C85.9486 17.8427 85.9806 17.768 86.0233 17.64L86.1513 16.488C86.1299 16.4667 86.1193 16.424 86.1193 16.36C86.1619 16.2747 86.1833 16.2213 86.1833 16.2C86.1833 16.0507 86.1726 15.9547 86.1513 15.912C86.1299 15.8693 86.1086 15.8267 86.0872 15.784C86.1086 15.6987 86.1193 15.592 86.1193 15.464C86.1193 15.272 86.0446 15.176 85.8953 15.176C85.8953 15.176 85.8739 15.1867 85.8313 15.208C85.8099 15.208 85.7673 15.2187 85.7033 15.24L85.6713 15.112V15.08C85.6713 14.9733 85.7673 14.8667 85.9593 14.76C85.9806 14.76 85.9913 14.7707 85.9913 14.792H86.0553C86.1406 14.792 86.2259 14.7493 86.3113 14.664L86.7913 15.048C86.8126 15.048 86.8019 15.1013 86.7593 15.208L86.9193 15.432V16.2C86.9406 16.2427 86.9513 16.2747 86.9513 16.296C86.9726 16.3173 86.9833 16.3387 86.9833 16.36C86.9833 16.3813 86.9726 16.4027 86.9513 16.424C86.9299 16.4453 86.9193 16.4773 86.9193 16.52V17.64C86.8979 17.64 86.8766 17.6507 86.8553 17.672C86.8766 17.6933 86.8873 17.96 86.8873 18.472C86.8873 18.5147 86.8659 18.5787 86.8233 18.664C86.7806 18.7493 86.7593 18.8027 86.7593 18.824C86.7593 18.8453 86.7806 18.8987 86.8233 18.984H86.8873C86.8873 18.984 86.9406 18.824 87.0473 18.504H87.1432C87.1432 18.4613 87.1432 18.4187 87.1432 18.376C87.1432 18.312 87.1539 18.2373 87.1753 18.152L87.5913 17.672C87.6126 17.6293 87.6446 17.576 87.6873 17.512C87.7299 17.4267 87.7726 17.3413 87.8153 17.256C87.8366 17.2133 87.9113 17.128 88.0393 17C88.0606 16.9573 88.0819 16.9147 88.1033 16.872C88.1246 16.808 88.1566 16.7333 88.1993 16.648L88.4233 16.456C88.4233 16.4133 88.4446 16.3707 88.4873 16.328C88.5513 16.264 88.5939 16.2 88.6153 16.136C88.7219 16.1147 88.7966 16.008 88.8393 15.816C88.9673 15.752 89.1379 15.6133 89.3513 15.4V15.272C89.5219 15.1227 89.5966 15.048 89.5753 15.048H89.6073C89.6073 15.0693 89.6179 15.08 89.6393 15.08C89.6179 15.08 89.7459 14.92 90.0233 14.6C90.1299 14.5573 90.3113 14.3867 90.5673 14.088C90.7166 14.024 90.8873 13.9173 91.0793 13.768H91.3673L91.7193 13.832C91.8259 13.8747 91.9433 13.96 92.0713 14.088C92.1993 14.1947 92.2953 14.3973 92.3593 14.696V15.016C92.3593 15.0587 92.3486 15.1333 92.3273 15.24C92.3273 15.3253 92.3166 15.4427 92.2953 15.592C92.2739 15.912 91.9966 16.3173 91.4633 16.808C91.3779 16.808 91.2606 16.8613 91.1113 16.968V16.616C91.1539 16.5733 91.1966 16.52 91.2393 16.456C91.2819 16.3707 91.3246 16.2853 91.3673 16.2C91.3673 16.1573 91.2819 16.1147 91.1113 16.072C91.2393 15.816 91.3033 15.656 91.3033 15.592C91.3033 15.528 91.2713 15.4533 91.2073 15.368C91.1646 15.3893 91.1326 15.4107 91.1113 15.432C91.0899 15.432 91.0793 15.432 91.0793 15.432C90.9086 15.432 90.8339 15.4213 90.8553 15.4C90.8339 15.3787 90.8233 15.3253 90.8233 15.24H90.7593C90.7166 15.24 90.6526 15.2827 90.5673 15.368C90.4819 15.432 90.4286 15.464 90.4073 15.464C90.3859 15.464 90.3753 15.4533 90.3753 15.432H90.3113C90.2899 15.432 90.2579 15.4533 90.2153 15.496C90.1726 15.5387 90.1299 15.56 90.0873 15.56C90.0446 15.56 90.0019 15.528 89.9593 15.464C89.9166 15.464 89.8846 15.4747 89.8633 15.496C89.9059 15.5813 89.9059 15.6773 89.8633 15.784C89.7779 15.912 89.6926 15.976 89.6073 15.976C89.5859 15.976 89.5539 15.9653 89.5113 15.944C89.4899 15.9227 89.4686 15.912 89.4473 15.912C89.4473 16.0187 89.4579 16.0933 89.4793 16.136L89.2233 16.456C89.1806 16.4987 89.1273 16.52 89.0633 16.52C89.0419 16.52 89.0099 16.4987 88.9673 16.456L88.8073 16.904H88.7753C88.6686 16.904 88.5086 17.0427 88.2953 17.32L88.1673 17.384C87.8899 17.8747 87.6446 18.28 87.4313 18.6C87.2393 18.92 87.0899 19.144 86.9833 19.272V19.528C86.8339 19.6347 86.7486 19.8587 86.7273 20.2C86.6846 20.2427 86.6419 20.3173 86.5993 20.424C86.6419 20.5093 86.6419 20.6373 86.5993 20.808C86.5779 20.8293 86.5566 20.8827 86.5353 20.968C86.5139 21.032 86.4819 21.128 86.4393 21.256C86.3326 21.4267 86.2046 21.512 86.0553 21.512ZM94.228 21.128C94.164 21.128 94.1107 21.0747 94.068 20.968C94.0467 20.9893 94.036 21.0107 94.036 21.032H93.844L93.748 20.84C93.7267 20.8613 93.716 20.8827 93.716 20.904C93.6947 20.904 93.6627 20.8827 93.62 20.84L93.524 20.904C93.4173 20.7973 93.3 20.6587 93.172 20.488C93.0653 20.296 93.0013 20.104 92.98 19.912C92.9587 19.8907 92.916 19.88 92.852 19.88V19.624C92.9373 19.6027 92.9907 19.432 93.012 19.112L93.108 18.984V18.824L93.044 18.76L93.172 18.664L93.524 17.672L93.844 17.32V17.224C94.1 17.0533 94.26 16.872 94.324 16.68C94.4093 16.68 94.452 16.6373 94.452 16.552C94.7293 16.4667 94.836 16.328 94.772 16.136C94.8147 16.1147 94.836 16.104 94.836 16.104C94.8573 16.104 94.868 16.104 94.868 16.104C94.8893 16.104 94.932 16.1253 94.996 16.168C95.06 16.1893 95.1027 16.2 95.124 16.2C95.1667 16.2 95.1987 16.1893 95.22 16.168C95.2627 16.1467 95.2947 16.136 95.316 16.136C95.4013 16.2213 95.4547 16.264 95.476 16.264C95.5827 16.264 95.6893 16.2213 95.796 16.136C95.796 16.1573 95.8067 16.1893 95.828 16.232C95.8493 16.2747 95.86 16.3067 95.86 16.328C95.86 16.4347 95.8173 16.5307 95.732 16.616L95.828 16.744C95.828 16.8933 95.7 17.128 95.444 17.448C95.188 17.7253 95.0067 17.8853 94.9 17.928C94.8787 17.9493 94.8573 17.992 94.836 18.056C94.8147 18.0987 94.7827 18.1413 94.74 18.184H94.676L94.612 18.12L94.292 18.536C94.292 18.6213 94.2067 18.7813 94.036 19.016C93.972 19.0373 93.9187 19.048 93.876 19.048C93.8547 19.0267 93.844 19.0267 93.844 19.048V19.272C93.9507 19.464 93.9933 19.592 93.972 19.656C93.908 19.784 93.876 19.8587 93.876 19.88C93.876 19.8587 93.94 19.944 94.068 20.136C94.0467 20.1573 94.036 20.232 94.036 20.36C94.2067 20.3813 94.4307 20.4773 94.708 20.648H94.836C94.9213 20.648 94.9747 20.6373 94.996 20.616C95.0387 20.5733 95.06 20.552 95.06 20.552C95.0813 20.552 95.092 20.5627 95.092 20.584H95.124C95.1453 20.584 95.1987 20.5413 95.284 20.456C95.3693 20.3707 95.4227 20.328 95.444 20.328C95.4653 20.328 95.476 20.3387 95.476 20.36C95.476 20.3813 95.4867 20.392 95.508 20.392C95.5293 20.392 95.572 20.3813 95.636 20.36C95.7 20.3387 95.7533 20.328 95.796 20.328V20.232C95.7747 20.2107 95.7747 20.2 95.796 20.2V20.232C95.8173 20.2533 95.892 20.2853 96.02 20.328L95.988 20.2C96.052 20.1787 96.1053 20.1147 96.148 20.008C96.2547 20.008 96.3507 19.9973 96.436 19.976C96.5427 19.9333 96.596 19.88 96.596 19.816H96.852C96.852 19.8587 96.8733 19.88 96.916 19.88C97.1293 19.88 97.2467 19.7413 97.268 19.464L97.46 19.272C97.46 19.272 97.4813 19.2933 97.524 19.336C97.6093 19.2507 97.684 19.208 97.748 19.208C97.7693 19.208 97.78 19.2187 97.78 19.24C97.8013 19.2613 97.8333 19.272 97.876 19.272C97.94 19.272 98.004 19.24 98.068 19.176C98.132 19.112 98.164 19.0693 98.164 19.048C98.2067 19.0053 98.26 18.9627 98.324 18.92C98.388 18.8773 98.4413 18.8133 98.484 18.728L98.676 18.824C98.6547 18.8027 98.8787 18.6107 99.348 18.248C99.5613 18.1627 99.668 18.0987 99.668 18.056C99.7533 18.056 99.8387 18.024 99.924 17.96V17.864L100.372 17.64V17.832H100.212C100.191 17.8533 100.18 17.9173 100.18 18.024L99.444 18.6C99.4013 18.6 99.3907 18.5893 99.412 18.568H99.38C99.4013 18.568 99.3053 18.6747 99.092 18.888C99.0493 18.9307 98.964 18.952 98.836 18.952C98.5587 19.208 98.452 19.3253 98.516 19.304C98.4947 19.2827 98.4733 19.272 98.452 19.272C98.4307 19.2933 98.42 19.336 98.42 19.4H98.388C98.3027 19.4 98.1747 19.4853 98.004 19.656C97.9827 19.656 97.9507 19.656 97.908 19.656C97.8653 19.656 97.8227 19.6667 97.78 19.688C97.6947 19.752 97.588 19.8373 97.46 19.944C97.3533 20.0293 97.2253 20.136 97.076 20.264H96.884C96.7347 20.392 96.628 20.456 96.564 20.456H96.468C96.4467 20.4347 96.4253 20.424 96.404 20.424C96.3827 20.424 96.2973 20.4667 96.148 20.552C96.02 20.6373 95.9347 20.68 95.892 20.68H95.86C95.86 20.6587 95.8493 20.648 95.828 20.648C95.8067 20.648 95.7213 20.6907 95.572 20.776C95.444 20.84 95.3693 20.872 95.348 20.872H95.316C95.316 20.8507 95.2947 20.84 95.252 20.84C95.2307 20.84 95.1987 20.8507 95.156 20.872C95.1347 20.8933 95.0813 20.9147 94.996 20.936C94.7827 21.0427 94.7187 21.096 94.804 21.096C94.7827 21.096 94.7187 21.0853 94.612 21.064C94.5053 21.0427 94.4307 21.032 94.388 21.032L94.228 21.128ZM100.628 17.576C100.607 17.576 100.585 17.5653 100.564 17.544C100.564 17.5013 100.553 17.48 100.532 17.48L100.98 17C101.065 17 101.108 17.0213 101.108 17.064C101.108 17.1493 101.033 17.256 100.884 17.384C100.756 17.4907 100.671 17.5547 100.628 17.576ZM96.436 15.016C96.2653 15.016 96.0307 14.8987 95.732 14.664C95.476 14.408 95.348 14.2053 95.348 14.056C95.604 13.9493 95.8813 13.832 96.18 13.704C96.5 13.5547 96.8307 13.3947 97.172 13.224H97.204C97.1187 13.4587 97.0013 13.6507 96.852 13.8L96.916 14.024V14.216L96.756 14.408C96.756 14.8133 96.6493 15.016 96.436 15.016ZM102.192 21.256C102.213 21.256 102.192 21.224 102.128 21.16C102.085 21.2027 101.989 21.224 101.84 21.224C101.797 21.224 101.733 21.2027 101.648 21.16C101.584 21.1387 101.541 21.128 101.52 21.128C101.498 21.128 101.445 21.1387 101.36 21.16C101.296 21.1813 101.242 21.192 101.2 21.192C101.178 21.192 101.114 21.1707 101.008 21.128C100.901 21.1067 100.826 21.096 100.784 21.096C100.762 20.8187 100.517 20.712 100.048 20.776V20.712C100.048 20.5627 100.016 20.4453 99.9518 20.36C99.8878 20.2747 99.8344 20.136 99.7918 19.944C99.7704 19.9227 99.7278 19.88 99.6638 19.816C99.6211 19.7307 99.5998 19.5707 99.5998 19.336C99.5998 19.336 99.6211 19.2933 99.6638 19.208C99.6851 19.1867 99.6638 19.1333 99.5998 19.048C99.6211 19.0267 99.6638 18.856 99.7278 18.536C99.7491 18.4293 99.7598 18.344 99.7598 18.28C99.7811 18.216 99.7918 18.1627 99.7918 18.12C99.6638 18.0133 99.5998 17.9173 99.5998 17.832L99.6958 17.608C99.7171 17.6293 99.7918 17.64 99.9198 17.64H100.048C100.09 17.576 100.133 17.512 100.176 17.448C100.24 17.3627 100.314 17.2773 100.4 17.192C100.528 17.192 100.645 17.0747 100.752 16.84L100.72 16.712C100.741 16.6693 100.762 16.6373 100.784 16.616C100.784 16.616 100.794 16.616 100.816 16.616C100.816 16.616 100.805 16.616 100.784 16.616C100.805 16.616 100.837 16.6267 100.88 16.648C100.901 16.6267 100.944 16.584 101.008 16.52C101.072 16.456 101.178 16.3707 101.328 16.264C101.392 16.1787 101.498 16.072 101.648 15.944C101.904 15.7733 102.042 15.688 102.064 15.688C102.106 15.688 102.202 15.624 102.352 15.496C102.394 15.5173 102.426 15.5387 102.448 15.56C102.469 15.56 102.48 15.56 102.48 15.56C102.522 15.56 102.693 15.4853 102.992 15.336C102.97 15.4213 102.992 15.464 103.056 15.464H103.28C103.386 15.4 103.44 15.368 103.44 15.368C103.653 15.368 103.909 15.4853 104.208 15.72C104.229 15.7413 104.261 15.752 104.304 15.752V16.264C104.261 16.264 104.218 16.2427 104.176 16.2L104.048 16.488C104.133 16.616 104.176 16.68 104.176 16.68C104.133 16.7013 104.026 16.8827 103.856 17.224V17.48C103.77 17.48 103.696 17.4907 103.632 17.512C103.29 17.7467 103.098 17.864 103.056 17.864H102.992C102.97 17.8427 102.949 17.832 102.928 17.832C102.842 17.832 102.725 17.8747 102.576 17.96C102.554 17.9813 102.522 18.024 102.48 18.088C102.437 18.1307 102.384 18.152 102.32 18.152H102.288C102.288 18.1307 102.277 18.12 102.256 18.12C102.213 18.12 102.096 18.1627 101.904 18.248C101.733 18.312 101.637 18.344 101.616 18.344H101.552C101.53 18.3227 101.509 18.312 101.488 18.312L101.392 18.408H101.2C101.114 18.408 101.05 18.3867 101.008 18.344H100.592C100.592 18.4293 100.56 18.5573 100.496 18.728C100.453 18.8987 100.432 18.9947 100.432 19.016C100.432 19.08 100.506 19.2293 100.656 19.464C100.677 19.4853 100.72 19.5387 100.784 19.624C100.848 19.688 100.944 19.7733 101.072 19.88C101.114 19.9653 101.178 20.0507 101.264 20.136C101.306 20.1573 101.349 20.168 101.392 20.168C101.434 20.168 101.488 20.1787 101.552 20.2L101.648 20.328C101.712 20.2853 101.808 20.2853 101.936 20.328L102.096 20.424C102.202 20.424 102.256 20.424 102.256 20.424C102.256 20.4027 102.256 20.392 102.256 20.392C102.277 20.4133 102.277 20.424 102.256 20.424C102.277 20.4453 102.298 20.456 102.32 20.456C102.341 20.456 102.362 20.4453 102.384 20.424C102.426 20.3813 102.458 20.36 102.48 20.36H102.544C102.544 20.3813 102.554 20.392 102.576 20.392C102.64 20.392 102.714 20.3493 102.8 20.264C102.864 20.2853 102.928 20.2853 102.992 20.264L103.024 20.296V20.392C102.981 20.4133 102.928 20.4453 102.864 20.488C102.8 20.5307 102.714 20.5733 102.608 20.616V20.744C102.608 20.7653 102.65 20.776 102.736 20.776C103.098 20.776 103.386 20.6693 103.6 20.456C103.642 20.4773 103.674 20.4987 103.696 20.52C103.717 20.52 103.728 20.52 103.728 20.52C103.77 20.52 103.792 20.4987 103.792 20.456H103.952C103.994 20.4347 104.058 20.3813 104.144 20.296C104.229 20.1893 104.314 20.136 104.4 20.136L104.528 20.168L104.624 19.912L104.72 19.976C104.762 19.9333 104.858 19.912 105.008 19.912C105.008 19.912 105.008 19.9013 105.008 19.88C105.008 19.8587 105.018 19.8373 105.04 19.816C105.253 19.7733 105.52 19.592 105.84 19.272H105.968L106.448 18.888C106.448 18.8453 106.48 18.7813 106.544 18.696C106.565 18.696 106.597 18.7173 106.64 18.76L106.928 18.376C106.992 18.376 107.066 18.344 107.152 18.28L107.248 18.376L107.024 18.664C106.896 18.7493 106.736 18.8773 106.544 19.048C106.352 19.2187 106.138 19.4213 105.904 19.656C105.754 19.656 105.669 19.6987 105.648 19.784C105.456 19.8693 105.328 19.9653 105.264 20.072L105.168 19.976C105.146 19.9973 105.082 20.0507 104.976 20.136C104.89 20.2 104.741 20.2853 104.528 20.392C104.485 20.4347 104.421 20.4987 104.336 20.584C104.25 20.648 104.165 20.68 104.08 20.68C104.037 20.68 104.026 20.6693 104.048 20.648H104.016C103.93 20.648 103.845 20.68 103.76 20.744C103.674 20.808 103.632 20.8613 103.632 20.904C103.61 20.904 103.578 20.8827 103.536 20.84C103.258 20.9893 103.098 21.064 103.056 21.064H102.992L102.96 21.032L102.48 21.16C102.48 21.16 102.48 21.1493 102.48 21.128C102.48 21.1067 102.469 21.0853 102.448 21.064L102.352 21.192C102.33 21.192 102.298 21.2027 102.256 21.224C102.234 21.2453 102.213 21.256 102.192 21.256ZM101.424 18.024C101.402 17.96 101.424 17.928 101.488 17.928C101.509 17.928 101.52 17.9387 101.52 17.96H101.584C101.605 17.96 101.648 17.928 101.712 17.864C101.797 17.8 101.85 17.768 101.872 17.768C101.893 17.768 101.925 17.7787 101.968 17.8C102.01 17.8213 102.042 17.832 102.064 17.832C102.021 17.832 102.074 17.7573 102.224 17.608L102.32 17.672C102.81 17.352 103.056 17.0747 103.056 16.84C103.056 16.5627 102.917 16.392 102.64 16.328C102.384 16.264 102.138 16.2 101.904 16.136C101.861 16.1787 101.818 16.2 101.776 16.2C101.669 16.3707 101.552 16.4987 101.424 16.584C101.381 16.584 101.253 16.6907 101.04 16.904C101.04 16.9253 100.976 17.0213 100.848 17.192C100.805 17.3413 100.762 17.4587 100.72 17.544C100.698 17.6293 100.688 17.6933 100.688 17.736C100.773 17.8853 100.858 17.96 100.944 17.96H100.976C100.997 17.9387 101.018 17.928 101.04 17.928C101.146 17.928 101.274 17.96 101.424 18.024ZM107.376 18.216V18.152C107.376 18.024 107.44 17.9493 107.568 17.928C107.546 18.0133 107.482 18.1093 107.376 18.216Z" fill="#FF3D00"/>
</svg>
