<svg width="24" height="18" viewBox="0 0 24 18" fill="none" xmlns="http://www.w3.org/2000/svg">
<path d="M23.4937 2.8102C23.3571 2.26657 23.0897 1.7709 22.7181 1.37281C22.3466 0.974716 21.884 0.688167 21.3766 0.541837C19.5082 1.78814e-07 12 0 12 0C12 0 4.49183 1.78814e-07 2.62336 0.541837C2.11599 0.688167 1.6534 0.974716 1.28186 1.37281C0.910331 1.7709 0.642899 2.26657 0.506332 2.8102C0.157447 4.85198 -0.0118575 6.92433 0.00064491 9C-0.0118575 11.0757 0.157447 13.148 0.506332 15.1898C0.642899 15.7334 0.910331 16.2291 1.28186 16.6272C1.6534 17.0253 2.11599 17.3118 2.62336 17.4582C4.49183 18 12 18 12 18C12 18 19.5082 18 21.3766 17.4582C21.884 17.3118 22.3466 17.0253 22.7181 16.6272C23.0897 16.2291 23.3571 15.7334 23.4937 15.1898C23.8426 13.148 24.0119 11.0757 23.9994 9C24.0119 6.92433 23.8426 4.85198 23.4937 2.8102ZM9.60013 12.8571V5.14286L15.8312 9L9.60013 12.8571Z" fill="#20001F"/>
</svg>
