<svg width="15" height="16" viewBox="0 0 15 16" fill="none" xmlns="http://www.w3.org/2000/svg">
<path fill-rule="evenodd" clip-rule="evenodd" d="M12.9437 3.02629C13.1875 2.78257 13.1875 2.38886 12.9437 2.14513L11.4812 0.682785C11.3645 0.565764 11.2059 0.5 11.0406 0.5C10.8753 0.5 10.7168 0.565764 10.6 0.682785L9.375 1.90766L11.7188 4.25116L12.9437 3.02629ZM11.0938 4.8761L8.75 2.53259L2.59375 8.68821C2.53125 8.7507 2.5 8.82569 2.5 8.91318V10.813C2.5 10.988 2.6375 11.1255 2.8125 11.1255H4.7125C4.79375 11.1255 4.875 11.0942 4.93125 11.0317L11.0938 4.8761ZM13.75 13.0003H1.25C0.5625 13.0003 0 13.5627 0 14.2501C0 14.9376 0.5625 15.5 1.25 15.5H13.75C14.4375 15.5 15 14.9376 15 14.2501C15 13.5627 14.4375 13.0003 13.75 13.0003Z" fill="white"/>
</svg>
