<svg width="83" height="20" viewBox="0 0 83 20" fill="none" xmlns="http://www.w3.org/2000/svg">
<path d="M12.5918 19.6645C12.5918 19.6481 12.5754 19.6154 12.5426 19.5663C12.5098 19.5336 12.4934 19.509 12.4934 19.4926C12.4934 19.4763 12.5098 19.4354 12.5426 19.3699C12.5918 19.3044 12.6246 19.2553 12.641 19.2226C12.6574 19.2062 12.7148 19.1408 12.8132 19.0262C12.9279 18.928 12.9935 18.8789 13.0099 18.8789C12.9935 18.8789 12.9935 18.8789 13.0099 18.8789C13.0099 18.8953 13.0345 18.928 13.0837 18.9771C13.1165 18.928 13.1411 18.8789 13.1575 18.8298C13.1739 18.7807 13.1903 18.7234 13.2067 18.6579C13.2722 18.6416 13.3542 18.5925 13.4526 18.5106C13.5018 18.4452 13.5838 18.3388 13.6985 18.1915C13.8133 18.0442 14.0018 17.8151 14.2642 17.5041C14.3625 17.4877 14.4691 17.3322 14.5839 17.0376C14.5839 17.0213 14.5839 16.9967 14.5839 16.964C14.5839 16.9313 14.5921 16.8903 14.6085 16.8412C14.6249 16.8576 14.6495 16.9149 14.6823 17.0131C14.7806 16.9804 14.838 16.9313 14.8544 16.8658C15.0676 16.6858 15.2971 16.3666 15.543 15.9083C15.7234 15.7283 15.8463 15.6301 15.9119 15.6137C15.9447 15.4173 15.9447 15.3191 15.9119 15.3191C15.9611 15.3028 16.0021 15.2455 16.0349 15.1473C16.1005 15.1473 16.2398 15 16.453 14.7054L16.5514 14.5827C16.6661 14.5336 16.8137 14.3944 16.994 14.1653C17.0268 14.1326 17.0596 14.0998 17.0924 14.0671C17.1252 14.0344 17.1744 14.0016 17.24 13.9689C17.2564 13.9362 17.2482 13.8871 17.2154 13.8216C17.3138 13.8216 17.3465 13.838 17.3138 13.8707H17.3383C17.4367 13.8707 17.4941 13.7561 17.5105 13.527C17.4941 13.527 17.4941 13.5188 17.5105 13.5025V13.527C17.5105 13.527 17.5269 13.527 17.5597 13.527C17.5433 13.527 17.5925 13.4697 17.7072 13.3552C17.74 13.3224 17.7892 13.2733 17.8548 13.2079C17.9204 13.1424 17.9614 13.0687 17.9778 12.9869V12.8887C17.9942 12.856 18.0106 12.8232 18.027 12.7905C18.0598 12.7578 18.0843 12.725 18.1007 12.6923C18.1827 12.5286 18.2401 12.4468 18.2729 12.4468C18.2565 12.4304 18.2401 12.4059 18.2237 12.3732C18.2073 12.3404 18.1909 12.3077 18.1745 12.275C17.9778 12.5041 17.8794 12.6432 17.8794 12.6923C17.8794 12.7414 17.8712 12.7905 17.8548 12.8396C17.822 12.8396 17.781 12.8314 17.7318 12.8151C17.6991 12.7823 17.6663 12.766 17.6335 12.766C17.4203 12.766 17.3711 12.8396 17.4859 12.9869L17.3629 13.036C17.199 13.2488 17.0432 13.437 16.8957 13.6007C16.7481 13.748 16.6087 13.8871 16.4776 14.018L15.9365 14.4599C15.9201 14.4763 15.9119 14.4926 15.9119 14.509C15.9119 14.5254 15.8463 14.5745 15.7152 14.6563C15.6496 14.7218 15.5758 14.8036 15.4938 14.9018C15.4283 14.9836 15.3545 15.0818 15.2725 15.1964L14.7069 15.8101C14.6413 15.8756 14.5511 15.9493 14.4363 16.0311C14.3216 16.1293 14.1904 16.2439 14.0428 16.3748L13.8215 16.6203C13.8215 16.5876 13.8051 16.5548 13.7723 16.5221C13.7887 16.4403 13.8379 16.3421 13.9199 16.2275C14.0182 16.1129 14.174 15.9411 14.3871 15.7119L15.543 14.4354L16.1333 13.9444C16.2972 13.7316 16.5842 13.3961 16.994 12.9378C17.1252 12.8723 17.2482 12.7905 17.3629 12.6923L17.4121 12.5941C17.7073 12.365 17.9532 12.1195 18.1499 11.8576L18.3713 11.7349C18.4041 11.6858 18.4614 11.6285 18.5434 11.563C18.6418 11.4812 18.7894 11.3748 18.9861 11.2439C19.4124 10.8347 19.6173 10.581 19.6009 10.4828C19.7977 10.3846 19.8879 10.2128 19.8715 9.96727L19.9207 10.1391C20.019 10.1391 20.0846 10.0818 20.1174 9.96727C20.1502 9.8527 20.1748 9.74632 20.1912 9.64812L20.7322 8.66612L20.8306 8.29787C20.8634 8.28151 20.888 8.23241 20.9044 8.15057C20.9208 8.06874 21.011 7.90507 21.1749 7.65957V7.58592C21.1749 7.53682 21.1749 7.48772 21.1749 7.43862C21.1913 7.38952 21.2077 7.34042 21.2241 7.29133C21.2569 7.27496 21.3061 7.21768 21.3717 7.11948C21.4045 7.08674 21.4209 7.02128 21.4209 6.92308L21.3717 6.75123V6.62848C21.3717 6.62848 21.4209 6.57119 21.5192 6.45663C21.552 6.42389 21.552 6.39116 21.5192 6.35843L21.7406 5.96563V5.86743C21.7406 5.8347 21.7406 5.7856 21.7406 5.72013C21.7406 5.6383 21.7324 5.54828 21.716 5.45008L21.7652 5.37643V5.03273C21.8143 4.8527 21.8389 4.79542 21.8389 4.86088C21.8389 4.69722 21.8307 4.59083 21.8143 4.54173L21.4454 3.80524C21.3799 3.70704 21.2815 3.65794 21.1503 3.65794L21.052 3.68249C21.052 3.64975 21.0602 3.6252 21.0765 3.60884C21.0274 3.527 20.97 3.48609 20.9044 3.48609H20.8552C20.8552 3.50245 20.847 3.51064 20.8306 3.51064H20.806C20.8224 3.51064 20.8306 3.51064 20.8306 3.51064C20.8306 3.49427 20.7486 3.46154 20.5847 3.41244C20.4863 3.3797 20.3961 3.36334 20.3142 3.36334C20.2978 3.36334 20.2978 3.37152 20.3142 3.38789C20.3142 3.42062 20.306 3.43699 20.2896 3.43699C20.2568 3.43699 20.2322 3.4288 20.2158 3.41244C20.2158 3.39607 20.2076 3.38789 20.1912 3.38789C20.1584 3.38789 20.1256 3.40425 20.0928 3.43699C20.0764 3.46972 20.06 3.48609 20.0436 3.48609C20.0108 3.48609 19.9534 3.4779 19.8715 3.46154C19.7895 3.44517 19.7321 3.43699 19.6993 3.43699L19.1583 3.51064L18.6418 3.55974C18.5434 3.6252 18.4696 3.65794 18.4205 3.65794C18.3877 3.65794 18.2811 3.69067 18.1007 3.75614C17.9532 3.8216 17.8466 3.85434 17.781 3.85434C17.7482 3.85434 17.5843 3.90344 17.2892 4.00164L17.2154 4.09984C16.2808 4.42717 15.4529 4.79542 14.7314 5.20458C14.6659 5.22095 14.5921 5.25368 14.5101 5.30278C14.4445 5.33552 14.3543 5.36825 14.2396 5.40098L12.5426 6.21113C12.1655 6.44026 12.0098 6.55483 12.0754 6.55483H12.0262C12.0262 6.53846 12.0098 6.53028 11.977 6.53028C12.0098 6.53028 11.9688 6.55483 11.854 6.60393C11.7393 6.65303 11.6081 6.75941 11.4605 6.92308C11.2966 6.92308 11.2064 6.95581 11.19 7.02128C11.1572 7.02128 11.1572 7.00491 11.19 6.97218C11.19 6.95581 11.1818 6.94763 11.1654 6.94763C11.149 6.94763 11.0752 7.01309 10.9441 7.14403C10.8293 7.25859 10.7637 7.31587 10.7473 7.31587C10.7309 7.31587 10.7145 7.30769 10.6981 7.29133H10.6735C10.6735 7.29133 10.567 7.33224 10.3538 7.41407C10.3046 7.43044 10.28 7.47136 10.28 7.53682L9.76358 7.83142C9.77998 7.83142 9.6734 7.90507 9.44387 8.05237L8.82903 8.34697L7.99286 8.78887C7.97646 8.78887 7.96826 8.81342 7.96826 8.86252C7.96826 8.84615 7.95187 8.83797 7.91908 8.83797C7.80431 8.83797 7.68134 8.89525 7.55017 9.00982C7.51738 9.00982 7.48459 9.018 7.4518 9.03437C7.33703 9.09984 7.18127 9.19804 6.98453 9.32897C6.96813 9.32897 6.85336 9.4108 6.64022 9.57447C6.60743 9.54173 6.56644 9.52537 6.51725 9.52537C6.50086 9.52537 6.46806 9.54173 6.41888 9.57447C6.38609 9.6072 6.36149 9.62357 6.3451 9.62357C6.31231 9.62357 6.29591 9.61538 6.29591 9.59902C6.31231 9.58265 6.31231 9.57447 6.29591 9.57447C6.18114 9.57447 6.07457 9.67267 5.9762 9.86907C5.84503 9.86907 5.71387 9.91817 5.5827 10.0164C5.46793 10.0982 5.39415 10.1391 5.36136 10.1391C5.34497 10.1391 5.27119 10.1882 5.14002 10.2864C5.07444 10.3028 4.99246 10.3273 4.89409 10.3601C4.79571 10.3928 4.68094 10.4337 4.54978 10.4828C4.51699 10.4992 4.45141 10.5483 4.35303 10.6301C4.25466 10.7119 4.18908 10.7529 4.15628 10.7529H4.13169C4.14809 10.7365 4.13989 10.7283 4.1071 10.7283C4.0907 10.7283 4.06611 10.7447 4.03332 10.7774C4.01692 10.8101 4.00053 10.8265 3.98413 10.8265C3.95134 10.8265 3.79558 10.8674 3.51686 10.9493L3.44308 10.9002C3.27912 11.0147 3.18894 11.072 3.17255 11.072C3.15615 11.072 3.13976 11.0638 3.12336 11.0475C3.10697 11.0311 3.08237 11.0229 3.04958 11.0229C3.01679 11.0229 2.95941 11.0475 2.87743 11.0966C2.81185 11.1457 2.76266 11.1702 2.72987 11.1702H2.70527C2.70527 11.1538 2.69708 11.1457 2.68068 11.1457C2.66429 11.1457 2.65609 11.162 2.65609 11.1948C2.67248 11.2111 2.66429 11.2193 2.63149 11.2193C2.6151 11.2193 2.59051 11.2111 2.55771 11.1948C2.54132 11.1784 2.52492 11.1702 2.50853 11.1702C2.47574 11.1702 2.45934 11.1866 2.45934 11.2193C2.47574 11.2357 2.47574 11.2439 2.45934 11.2439C2.42655 11.2439 2.41835 11.2357 2.43475 11.2193H2.41015C2.31178 11.2193 2.27899 11.2275 2.31178 11.2439L2.26259 11.293C2.19701 11.293 2.10683 11.2848 1.99207 11.2684C1.89369 11.252 1.83631 11.2439 1.81991 11.2439C1.80352 11.2439 1.78712 11.2602 1.77072 11.293C1.75433 11.3093 1.73793 11.3175 1.72154 11.3175C1.68875 11.3175 1.59037 11.293 1.42642 11.2439C1.26246 11.1948 1.17229 11.1702 1.15589 11.1702C1.17229 11.1702 1.1313 11.1948 1.03292 11.2439L0.614835 11.0229C0.532857 10.9738 0.491868 10.9411 0.491868 10.9247V10.9493H0.467275C0.418088 10.9493 0.26233 10.7692 0 10.4092V10.2373C0.0163956 10.2209 0.0245934 10.1964 0.0245934 10.1637C0.0245934 9.96727 0.0737802 9.69722 0.172154 9.35352C0.139363 9.30442 0.245934 9.07529 0.491868 8.66612C0.573846 8.60065 0.655824 8.527 0.737802 8.44517C0.81978 8.34697 0.901758 8.23241 0.983736 8.10147C1.16409 7.93781 1.31165 7.78232 1.42642 7.63502C1.4756 7.58592 1.56578 7.53682 1.69694 7.48772L1.74613 7.38953C1.82811 7.30769 1.93468 7.21768 2.06585 7.11948C2.21341 7.00491 2.37736 6.88216 2.55771 6.75123C2.59051 6.73486 2.63969 6.69394 2.70527 6.62848C2.77086 6.56301 2.86103 6.51391 2.9758 6.48118C3.09057 6.31751 3.18075 6.23568 3.24633 6.23568H3.27092C3.27092 6.25205 3.27912 6.26023 3.29552 6.26023C3.29552 6.26023 3.30371 6.24386 3.32011 6.21113C3.3529 6.1784 3.41028 6.16203 3.49226 6.16203L3.56604 6.11293C3.59883 6.11293 3.61523 6.10475 3.61523 6.08838H3.63982L3.88576 5.91653V6.08838L3.44308 6.40753L2.9758 6.65303L2.36097 7.14403C2.27899 7.25859 2.12323 7.38134 1.89369 7.51227C1.8609 7.62684 1.71334 7.78232 1.45101 7.97872C1.45101 7.99509 1.45101 8.01964 1.45101 8.05237C1.45101 8.08511 1.44281 8.11784 1.42642 8.15057C1.42642 8.15057 1.41822 8.15057 1.40182 8.15057C1.40182 8.15057 1.39363 8.14239 1.37723 8.12602C1.31165 8.19149 1.26246 8.28969 1.22967 8.42062C1.19688 8.38789 1.17229 8.37152 1.15589 8.37152C1.13949 8.40425 1.1149 8.45336 1.08211 8.51882C1.06571 8.58429 1.02473 8.65794 0.959143 8.73977L0.786989 8.81342V8.86252C0.786989 9.00982 0.696813 9.13257 0.516461 9.23077C0.516461 9.24713 0.516461 9.25532 0.516461 9.25532C0.532857 9.25532 0.541055 9.2635 0.541055 9.27987C0.541055 9.34534 0.508264 9.43535 0.442681 9.54992C0.377099 9.64812 0.344308 9.71358 0.344308 9.74632C0.344308 9.76268 0.352505 9.79542 0.368901 9.84452C0.401692 9.89362 0.418088 9.93453 0.418088 9.96727C0.418088 9.98363 0.418088 10.0082 0.418088 10.0409C0.418088 10.0736 0.40989 10.1146 0.393494 10.1637C0.40989 10.2128 0.442681 10.2619 0.491868 10.311C0.541055 10.3437 0.598439 10.3764 0.664022 10.4092C0.762396 10.4583 0.81978 10.491 0.836176 10.5074C0.836176 10.5074 0.844373 10.5074 0.860769 10.5074C0.877165 10.5074 0.885362 10.5237 0.885362 10.5565C0.885362 10.5892 0.89356 10.6056 0.909956 10.6056C0.942747 10.6056 0.96734 10.5892 0.983736 10.5565C1.00013 10.5074 1.02473 10.4828 1.05752 10.4828C1.07391 10.4828 1.08211 10.491 1.08211 10.5074H1.1313C1.16409 10.5074 1.18048 10.4828 1.18048 10.4337C1.19688 10.4501 1.21327 10.4664 1.22967 10.4828C1.24607 10.4992 1.27066 10.5237 1.30345 10.5565H1.35264C1.40182 10.5565 1.45101 10.5483 1.5002 10.5319C1.58218 10.4992 1.65596 10.4992 1.72154 10.5319L2.11503 10.6056C2.14782 10.6056 2.20521 10.581 2.28719 10.5319C2.36916 10.4828 2.45934 10.4583 2.55771 10.4583H2.65609C2.67248 10.4746 2.70527 10.4828 2.75446 10.4828L2.80365 10.4337C2.85283 10.4173 2.91842 10.3928 3.00039 10.3601C3.08237 10.311 3.13156 10.2864 3.14796 10.2864C3.16435 10.2864 3.18894 10.2946 3.22174 10.311C3.25453 10.3273 3.27912 10.3355 3.29552 10.3355C3.24633 10.3355 3.28732 10.311 3.41848 10.2619C3.56604 10.1964 3.76279 10.1391 4.00872 10.09C3.97593 10.0573 3.98413 10.0409 4.03332 10.0409H4.1071C4.12349 10.0573 4.15628 10.0655 4.20547 10.0655C4.22187 10.0655 4.23007 10.0573 4.23007 10.0409C4.23007 10.0245 4.23826 10.0164 4.25466 10.0164H4.30385C4.28745 10.0327 4.29565 10.0409 4.32844 10.0409C4.34483 10.0409 4.36943 10.0245 4.40222 9.99182C4.43501 9.94272 4.4596 9.91817 4.476 9.91817C4.49239 9.91817 4.50059 9.92635 4.50059 9.94272H4.54978C4.56617 9.94272 4.58257 9.93453 4.59897 9.91817C4.61536 9.88543 4.63176 9.86907 4.64815 9.86907H4.69734C4.71374 9.88543 4.73013 9.89362 4.74653 9.89362C4.8285 9.86088 4.93508 9.81178 5.06624 9.74632C5.19741 9.66448 5.35316 9.57447 5.53352 9.47627C5.56631 9.49263 5.61549 9.49263 5.68108 9.47627C5.74666 9.42717 5.83683 9.37807 5.9516 9.32897C6.06637 9.27987 6.27132 9.19804 6.56644 9.08347C6.64842 9.03437 6.77958 8.94435 6.95993 8.81342C7.14028 8.68249 7.24686 8.61702 7.27965 8.61702C7.29604 8.61702 7.29604 8.6252 7.27965 8.64157C7.26325 8.65794 7.27145 8.66612 7.30424 8.66612C7.4682 8.66612 7.61576 8.5761 7.74692 8.39607C7.77971 8.37971 7.8371 8.33879 7.91908 8.27332C8.00105 8.20786 8.05844 8.17512 8.09123 8.17512C8.10762 8.17512 8.11582 8.18331 8.11582 8.19967C8.13222 8.21604 8.14861 8.22422 8.16501 8.22422C8.1814 8.22422 8.23059 8.19149 8.31257 8.12602C8.39455 8.06056 8.44373 8.02782 8.46013 8.02782H8.48472C8.48472 8.04419 8.49292 8.05237 8.50932 8.05237C8.60769 8.05237 8.78804 7.92962 9.05037 7.68412C9.16514 7.56956 9.21433 7.51227 9.19793 7.51227C9.23072 7.51227 9.23892 7.52046 9.22253 7.53682H9.27171C9.35369 7.53682 9.42747 7.51227 9.49305 7.46317C9.98492 7.16858 10.2227 7.02128 10.2063 7.02128H10.2554C10.2554 7.03764 10.2636 7.04583 10.28 7.04583C10.2145 7.04583 10.4358 6.91489 10.9441 6.65303C11.0096 6.65303 11.1244 6.58756 11.2884 6.45663C11.3048 6.45663 11.3294 6.44844 11.3622 6.43208C11.3949 6.41571 11.4851 6.36661 11.6327 6.28478C11.7966 6.18658 11.8786 6.12111 11.8786 6.08838H12.0016C11.9688 6.08838 11.9688 6.10475 12.0016 6.13748C12.1163 6.05565 12.2557 5.95745 12.4197 5.84288C12.6 5.72831 12.7968 5.60556 13.0099 5.47463H13.0345C13.0509 5.47463 13.1247 5.4419 13.2558 5.37643L13.551 5.22913C13.6002 5.1964 13.6411 5.13093 13.6739 5.03273L13.7477 5.10638C13.7805 5.07365 13.8461 5.03273 13.9445 4.98363C14.0428 4.91817 14.2068 4.83633 14.4363 4.73813L14.5593 4.61538C14.6249 4.59902 14.6905 4.57447 14.756 4.54173C14.838 4.509 14.92 4.47627 15.002 4.44353L15.4447 4.09984C15.5266 4.08347 15.6332 4.04255 15.7644 3.97709C15.9119 3.91162 16.1251 3.80524 16.4038 3.65794C16.4694 3.65794 16.5596 3.63339 16.6743 3.58429C16.9531 3.42062 17.0842 3.33879 17.0678 3.33879C17.0842 3.33879 17.0924 3.34697 17.0924 3.36334H17.117C17.1662 3.36334 17.3383 3.30605 17.6335 3.19149C17.9614 3.06056 18.1417 2.97054 18.1745 2.92144C18.2073 2.95417 18.2483 2.97054 18.2975 2.97054C18.3139 2.97054 18.3303 2.96236 18.3467 2.94599C18.3795 2.91326 18.4041 2.89689 18.4205 2.89689C18.4369 2.89689 18.4614 2.91326 18.4942 2.94599C18.527 2.94599 18.5516 2.91326 18.568 2.84779C18.5844 2.86416 18.6254 2.87234 18.691 2.87234C18.7238 2.87234 18.7894 2.84779 18.8877 2.79869C19.0025 2.73322 19.0681 2.70049 19.0845 2.70049H19.2074C19.2402 2.71686 19.273 2.72504 19.3058 2.72504C19.5682 2.72504 19.7649 2.65957 19.8961 2.52864C19.9125 2.54501 19.9616 2.55319 20.0436 2.55319C20.06 2.55319 20.101 2.55319 20.1666 2.55319C20.2486 2.55319 20.3633 2.56137 20.5109 2.57774C20.6749 2.59411 20.7896 2.60229 20.8552 2.60229C20.9372 2.60229 20.9864 2.60229 21.0028 2.60229C20.9536 2.60229 20.9782 2.58592 21.0765 2.55319C21.0602 2.56956 21.052 2.59411 21.052 2.62684C21.052 2.69231 21.1011 2.74959 21.1995 2.79869C21.2979 2.65139 21.3799 2.57774 21.4454 2.57774C21.5438 2.57774 21.798 2.66776 22.2078 2.84779C22.2078 2.84779 22.216 2.87234 22.2324 2.92144C22.2652 2.95417 22.298 2.97054 22.3308 2.97054H22.3554C22.3554 2.95417 22.3636 2.94599 22.38 2.94599C22.4784 2.94599 22.5603 3.10147 22.6259 3.41244C22.6915 3.44517 22.7489 3.46154 22.7981 3.46154C22.8145 3.49427 22.8391 3.54337 22.8719 3.60884C22.9211 3.6743 22.9784 3.74795 23.044 3.82979C23.044 3.84615 23.044 3.87889 23.044 3.92799C23.0604 3.96072 23.0768 4.00164 23.0932 4.05074C23.126 4.1653 23.1506 4.2635 23.167 4.34534C23.1834 4.42717 23.1998 4.509 23.2162 4.59083V4.86088C23.2162 4.87725 23.2244 4.90998 23.2408 4.95908C23.2736 4.99182 23.29 5.01637 23.29 5.03273C23.29 5.0491 23.2736 5.08183 23.2408 5.13093C23.2244 5.16367 23.2162 5.18822 23.2162 5.20458C23.2326 5.25368 23.2408 5.36006 23.2408 5.52373L23.167 5.62193C23.1506 5.72013 23.126 5.8347 23.0932 5.96563C23.0604 6.09656 23.044 6.2275 23.044 6.35843C22.9456 6.39116 22.8883 6.44026 22.8719 6.50573C22.8391 6.66939 22.7981 6.75941 22.7489 6.77578C22.6997 6.77578 22.6833 6.89034 22.6997 7.11948C22.6013 7.21768 22.5112 7.34042 22.4292 7.48772C22.4128 7.63502 22.339 7.83142 22.2078 8.07692L22.2324 8.17512L22.0357 8.32242C22.0357 8.32242 22.0521 8.39607 22.0849 8.54337C22.0849 8.55974 22.1095 8.56792 22.1587 8.56792C22.2242 8.56792 22.2816 8.50245 22.3308 8.37152C22.2652 8.37152 22.3718 8.3306 22.6505 8.24877C22.7817 8.21604 22.8391 8.19149 22.8227 8.17512C22.8227 8.14239 22.8801 8.10147 22.9948 8.05237C23.1096 7.97054 23.2162 7.89689 23.3145 7.83142C23.4129 7.74959 23.5031 7.68412 23.5851 7.63502C23.6343 7.63502 23.6998 7.61047 23.7818 7.56137C23.8638 7.49591 23.9786 7.42226 24.1261 7.34043L24.1753 7.29133L24.4704 7.09493C24.5196 7.07856 24.577 7.06219 24.6426 7.04583C24.7246 7.01309 24.8147 6.97218 24.9131 6.92308C25.0771 6.79214 25.2 6.69394 25.282 6.62848C25.364 6.56301 25.405 6.53028 25.405 6.53028C25.4214 6.53028 25.4296 6.53846 25.4296 6.55483H25.4788C25.4296 6.55483 25.5689 6.46481 25.8969 6.28478C26.11 6.21931 26.4297 6.05565 26.856 5.79378C26.8396 5.84288 26.8478 5.86743 26.8806 5.86743C26.9626 5.86743 27.1183 5.80196 27.3479 5.67103C27.479 5.5892 27.5774 5.56465 27.643 5.59738C27.6594 5.59738 27.6758 5.5892 27.6922 5.57283C27.7086 5.55646 27.7496 5.55646 27.8151 5.57283L28.0857 5.35188C28.0857 5.38461 28.1021 5.40098 28.1349 5.40098H28.2332C28.3152 5.40098 28.389 5.37643 28.4546 5.32733C28.5365 5.27823 28.6103 5.2455 28.6759 5.22913H28.7497C28.7661 5.2455 28.7907 5.25368 28.8235 5.25368H29.5859C29.6023 5.25368 29.6187 5.2455 29.635 5.22913C29.6678 5.1964 29.6924 5.18003 29.7088 5.18003C29.7252 5.18003 29.7252 5.1964 29.7088 5.22913C29.7088 5.2455 29.7252 5.25368 29.758 5.25368L30.0285 5.18003C30.0941 5.18003 30.3155 5.31097 30.6926 5.57283L30.7663 5.52373L30.9877 5.86743C31.0861 5.90016 31.1434 5.91653 31.1598 5.91653V6.08838C31.1762 6.13748 31.1844 6.18658 31.1844 6.23568C31.1844 6.20295 31.127 6.26841 31.0123 6.43208V6.60393C30.9959 6.62029 30.9795 6.63666 30.9631 6.65303C30.9467 6.66939 30.9303 6.69394 30.9139 6.72668C30.9139 6.79214 30.9139 6.86579 30.9139 6.94763C30.9139 7.02946 30.9057 7.12766 30.8893 7.24223L30.6188 7.92962L29.9794 8.93617C29.9466 8.9689 29.8974 9.018 29.8318 9.08347C29.7826 9.13257 29.7744 9.20622 29.8072 9.30442C29.6596 9.36988 29.5203 9.509 29.3891 9.72177L29.4137 9.99182L29.4875 9.91817C29.5203 9.88543 29.5695 9.8527 29.635 9.81997C29.717 9.77087 29.799 9.71358 29.881 9.64812C29.8974 9.61538 29.9466 9.5581 30.0285 9.47627L30.7418 9.03437C31.0205 8.88707 31.127 8.81342 31.0615 8.81342H31.1107C31.1107 8.82979 31.1189 8.83797 31.1352 8.83797C31.1516 8.83797 31.1762 8.8216 31.209 8.78887C31.2582 8.75614 31.291 8.73977 31.3074 8.73977C31.3238 8.73977 31.332 8.74795 31.332 8.76432H31.3812C31.3976 8.76432 31.414 8.75614 31.4304 8.73977C31.4632 8.7234 31.4878 8.71522 31.5041 8.71522C31.5205 8.71522 31.6353 8.6743 31.8485 8.59247C32.0616 8.51064 32.1764 8.46972 32.1928 8.46972C32.2092 8.46972 32.242 8.48609 32.2911 8.51882C32.3403 8.53519 32.3813 8.54337 32.4141 8.54337C32.4305 8.54337 32.4797 8.53519 32.5617 8.51882C32.6436 8.50245 32.701 8.49427 32.7338 8.49427C32.8814 8.49427 33.0617 8.59247 33.2749 8.78887C33.3077 8.83797 33.3569 8.90344 33.4224 8.98527C33.5044 9.05074 33.5864 9.12439 33.6684 9.20622C33.6848 9.27169 33.7094 9.32897 33.7421 9.37807C33.7749 9.42717 33.8077 9.47627 33.8405 9.52537L34.0619 10.4337C34.0619 10.4501 34.0783 10.5074 34.111 10.6056C34.1602 10.6874 34.1848 10.7365 34.1848 10.7529C34.1848 10.7529 34.152 10.8101 34.0865 10.9247L34.0373 10.8756L33.9881 10.9002L33.9389 10.8511C33.8569 10.8838 33.8159 10.9411 33.8159 11.0229C33.8159 11.0393 33.8241 11.072 33.8405 11.1211C33.8733 11.1702 33.8897 11.2111 33.8897 11.2439V11.7594C33.9225 11.8085 33.9553 11.874 33.9881 11.9558C34.0209 12.0213 34.0537 12.1113 34.0865 12.2259C34.1029 12.2913 34.1192 12.3732 34.1356 12.4714C34.152 12.5532 34.1766 12.6514 34.2094 12.766C34.2586 12.8151 34.316 12.8805 34.3816 12.9624C34.4636 13.0442 34.5455 13.1506 34.6275 13.2815C34.7095 13.4124 34.7997 13.5025 34.898 13.5516H34.9718C35.0046 13.5516 35.0292 13.5434 35.0456 13.527C35.0784 13.5106 35.1112 13.5025 35.144 13.5025L35.2178 13.5516H35.5129C35.6112 13.5516 35.6604 13.6088 35.6604 13.7234C35.6604 13.8216 35.603 13.9034 35.4883 13.9689C35.3735 14.0344 35.2915 14.0671 35.2423 14.0671C35.2259 14.0671 35.1276 14.0016 34.9472 13.8707C34.7833 13.7234 34.6767 13.6498 34.6275 13.6498C34.5783 13.6498 34.5701 13.6661 34.6029 13.6989C34.5865 13.6825 34.5783 13.6416 34.5783 13.5761C34.5291 13.5597 34.3734 13.347 34.111 12.9378L33.7913 12.5941L33.6438 12.1522L33.447 11.9804C33.4798 11.9476 33.4798 11.9149 33.447 11.8822C33.4142 11.8494 33.3732 11.7512 33.3241 11.5876L33.2503 11.3666L32.9306 10.9493L32.66 10.4092C32.66 10.4092 32.6354 10.3519 32.5863 10.2373C32.5535 10.1064 32.4961 9.98363 32.4141 9.86907C32.3321 9.7545 32.242 9.69722 32.1436 9.69722C32.1108 9.69722 32.0944 9.7054 32.0944 9.72177H32.0698C32.119 9.72177 32.037 9.66448 31.8239 9.54992C31.8075 9.51718 31.7337 9.49263 31.6025 9.47627L31.5041 9.35352L31.4304 9.50082L31.2582 9.42717C31.2254 9.42717 31.1926 9.44353 31.1598 9.47627C31.1434 9.49263 31.127 9.50082 31.1107 9.50082C31.0943 9.50082 31.0861 9.49263 31.0861 9.47627H31.0615C31.0451 9.47627 31.0205 9.50082 30.9877 9.54992C30.9549 9.59902 30.9221 9.62357 30.8893 9.62357C30.8401 9.62357 30.8155 9.6072 30.8155 9.57447L30.5204 9.74632L30.422 9.72177L29.7826 10.1146H29.7334C29.7334 10.0982 29.7252 10.09 29.7088 10.09C29.7416 10.09 29.5695 10.2537 29.1924 10.581C29.0284 10.6628 28.9136 10.7447 28.8481 10.8265C28.7497 10.9083 28.6267 11.0147 28.4792 11.1457C28.3316 11.2602 28.1512 11.3993 27.9381 11.563C27.7741 11.6939 27.6594 11.8003 27.5938 11.8822C27.5446 11.964 27.479 12.0622 27.397 12.1768C27.3807 12.1768 27.3479 12.2177 27.2987 12.2995C27.2495 12.3813 27.2003 12.455 27.1511 12.5205C27.1675 12.5041 27.1511 12.4959 27.1019 12.4959C27.1511 12.4959 27.1265 12.5123 27.0281 12.545L26.7576 12.9133C26.7248 12.9296 26.6756 12.9542 26.6101 12.9869C26.5445 13.0033 26.4543 13.0442 26.3395 13.1097C26.2903 13.0606 26.2166 13.036 26.1182 13.036L26.069 12.8642C26.069 12.6678 26.1264 12.5696 26.2412 12.5696C26.2576 12.5696 26.2576 12.5777 26.2412 12.5941C26.2412 12.6105 26.2576 12.6187 26.2903 12.6187L26.6347 12.2995L26.8806 12.0049C26.9134 11.9885 26.9462 11.964 26.979 11.9313C27.0281 11.8985 27.0855 11.8576 27.1511 11.8085C27.1839 11.8085 27.2085 11.8003 27.2249 11.784C27.2905 11.7185 27.3561 11.6367 27.4216 11.5385C27.5036 11.4403 27.5938 11.3257 27.6922 11.1948C27.6922 11.1457 27.7004 11.1047 27.7168 11.072C27.8807 10.8756 27.9791 10.7119 28.0119 10.581L28.2578 10.2864L28.4054 9.89362L28.7005 9.42717L28.8972 9.03437C28.9956 8.80524 29.094 8.54337 29.1924 8.24877C29.3071 7.95417 29.4219 7.61866 29.5367 7.24223C29.5367 7.19313 29.5449 7.16039 29.5613 7.14403C29.5613 7.02946 29.5531 6.98854 29.5367 7.02128C29.5367 6.95581 29.5285 6.90671 29.5121 6.87398C29.5121 6.82488 29.5039 6.78396 29.4875 6.75123V6.60393C29.4711 6.55483 29.4465 6.49754 29.4137 6.43208C29.3809 6.36661 29.3481 6.29296 29.3153 6.21113C29.3153 6.21113 29.2661 6.19476 29.1678 6.16203C29.1678 6.16203 29.1514 6.14566 29.1186 6.11293C29.0858 6.06383 29.0612 6.03928 29.0448 6.03928H28.9956C28.9956 6.05565 28.9874 6.06383 28.971 6.06383C28.971 6.06383 28.9136 6.0311 28.7989 5.96563C28.7825 5.96563 28.7251 5.99018 28.6267 6.03928C28.5283 6.08838 28.471 6.11293 28.4546 6.11293C28.4218 6.11293 28.4136 6.10475 28.43 6.08838H28.3808C28.3644 6.08838 28.3316 6.10475 28.2824 6.13748C28.2332 6.17021 28.1922 6.18658 28.1594 6.18658L28.1103 6.08838L27.766 6.16203C27.6512 6.19476 27.5692 6.2275 27.52 6.26023C27.4708 6.2766 27.438 6.28478 27.4216 6.28478C27.4052 6.28478 27.397 6.2766 27.397 6.26023H27.3725C27.3397 6.26023 27.2987 6.28478 27.2495 6.33388L26.8314 6.48118C26.7002 6.41571 26.6019 6.38298 26.5363 6.38298C26.5035 6.38298 26.4543 6.41571 26.3887 6.48118C26.3723 6.53028 26.3313 6.57938 26.2658 6.62848C26.2002 6.66121 26.151 6.70213 26.1182 6.75123C26.1018 6.75123 26.0772 6.74304 26.0444 6.72668C26.0116 6.71031 25.9788 6.70213 25.946 6.70213C25.9132 6.73486 25.905 6.77578 25.9214 6.82488H25.8723C25.7575 6.82488 25.6263 6.87398 25.4788 6.97218C25.3476 7.07038 25.1181 7.18494 24.7901 7.31587C24.6754 7.38134 24.5114 7.48772 24.2983 7.63502C24.1015 7.78232 23.995 7.85597 23.9786 7.85597C23.9458 7.85597 23.9294 7.84779 23.9294 7.83142H23.8802C23.8638 7.83142 23.7162 7.94599 23.4375 8.17512C23.4047 8.19149 23.3637 8.20786 23.3145 8.22422C23.2654 8.24059 23.1998 8.25696 23.1178 8.27332C23.0686 8.45336 22.8063 8.60884 22.3308 8.73977C22.298 8.83797 22.1669 8.94435 21.9373 9.05892C21.9373 9.07528 21.9209 9.1162 21.8881 9.18167C21.675 9.24713 21.511 9.3617 21.3963 9.52537C21.3963 9.59083 21.3553 9.67267 21.2733 9.77087C21.1093 9.93453 21.011 10.1064 20.9782 10.2864C20.8142 10.5483 20.7404 10.671 20.7568 10.6547C20.7732 10.671 20.7732 10.6792 20.7568 10.6792V10.6547C20.7404 10.6547 20.7158 10.6465 20.6831 10.6301L20.5601 10.7774C20.5601 10.8101 20.5519 10.8756 20.5355 10.9738C20.5191 11.0556 20.5109 11.1129 20.5109 11.1457L20.4125 11.072C20.3961 11.072 20.3797 11.0638 20.3633 11.0475L20.2158 11.293C20.1994 11.293 20.1748 11.3175 20.142 11.3666C19.9944 11.4321 19.9289 11.5466 19.9452 11.7103L19.6501 11.9804C19.6337 11.9967 19.6173 12.0376 19.6009 12.1031C19.5845 12.1522 19.56 12.2259 19.5272 12.3241C19.4944 12.3404 19.4534 12.365 19.4042 12.3977C19.3714 12.4304 19.3222 12.4632 19.2566 12.4959L19.1583 12.766C19.0927 12.766 19.0025 12.8478 18.8877 13.0115C18.8549 13.0442 18.814 13.0851 18.7648 13.1342C18.732 13.1833 18.6992 13.257 18.6664 13.3552C18.3221 13.5025 18.1253 13.748 18.0762 14.0917C17.9614 14.108 17.863 14.1817 17.781 14.3126C17.781 14.3617 17.7564 14.4517 17.7072 14.5827C17.6417 14.6154 17.5679 14.6645 17.4859 14.73C17.4203 14.7791 17.3383 14.8445 17.24 14.9263L17.0186 15.2209C16.9858 15.2537 16.9449 15.2946 16.8957 15.3437C16.8629 15.3764 16.8301 15.401 16.7973 15.4173C16.7481 15.4828 16.7399 15.5319 16.7727 15.5646C16.7399 15.581 16.6989 15.5974 16.6497 15.6137C16.6005 15.6301 16.5432 15.6547 16.4776 15.6874L16.4038 15.9329C16.4038 15.982 16.3546 16.0229 16.2562 16.0556C16.1579 16.252 16.0759 16.3502 16.0103 16.3502C15.9775 16.3502 15.9529 16.3421 15.9365 16.3257C15.8545 16.4894 15.7316 16.6776 15.5676 16.8903C15.5512 16.9067 15.543 16.9313 15.543 16.964C15.4611 16.964 15.3955 16.9885 15.3463 17.0376C15.2971 17.1031 15.2561 17.1358 15.2233 17.1358H15.1987C15.1987 17.1195 15.1905 17.1113 15.1741 17.1113C15.1741 17.1113 15.1577 17.1358 15.1249 17.1849C15.0922 17.234 15.043 17.3159 14.9774 17.4304L14.8544 17.6268C14.756 17.6596 14.6987 17.7087 14.6823 17.7741C14.5839 17.8069 14.5019 17.8723 14.4363 17.9705C14.3871 18.0687 14.3543 18.1178 14.338 18.1178H14.2888C14.2724 18.1015 14.256 18.0933 14.2396 18.0933C14.174 18.0933 14.1166 18.1588 14.0674 18.2897C13.9527 18.3388 13.8789 18.4043 13.8461 18.4861L13.4034 18.8543C13.2231 18.9362 13.1001 19.0262 13.0345 19.1244V19.1489C13.0345 19.198 13.0099 19.2635 12.9607 19.3453C12.9279 19.4272 12.805 19.5336 12.5918 19.6645ZM3.78738 6.38298L3.68901 6.28478L3.7136 6.23568L3.81198 6.33388L3.78738 6.38298ZM0.811582 10.5319H0.836176C0.836176 10.5319 0.827978 10.5319 0.811582 10.5319ZM12.1 19.9836L12.1737 19.7381C12.2065 19.7218 12.2475 19.7136 12.2967 19.7136C12.3787 19.7136 12.4197 19.7872 12.4197 19.9345C12.2393 20 12.1327 20.0164 12.1 19.9836Z" fill="#FF3D00"/>
<path d="M37.6978 16.0556L37.5749 16.0311C37.5749 16.0147 37.5421 16.0065 37.4765 16.0065C37.4273 16.0065 37.4109 15.9984 37.4273 15.982V15.8347C37.2961 15.8347 37.1486 15.7283 36.9846 15.5155C37.0666 15.3355 37.165 15.2455 37.2798 15.2455C37.2798 15.2455 37.2961 15.2291 37.3289 15.1964C37.3781 15.1637 37.4437 15.1146 37.5257 15.0491V14.9754C37.5257 14.9427 37.5257 14.91 37.5257 14.8772C37.5421 14.8282 37.5585 14.7791 37.5749 14.73C37.6569 14.6972 37.7634 14.6399 37.8946 14.5581C38.0421 14.4763 38.2225 14.3781 38.4356 14.2635C38.8127 14.2635 38.9603 14.3126 38.8783 14.4108C38.9767 14.6072 39.0013 14.73 38.9521 14.7791V14.8036C38.9521 14.8691 38.9029 14.9918 38.8045 15.1718C38.7881 15.2046 38.8045 15.2619 38.8537 15.3437C38.8045 15.3764 38.739 15.4419 38.657 15.5401C38.5914 15.6383 38.5012 15.761 38.3865 15.9083C38.3373 15.9902 38.2471 16.0311 38.1159 16.0311C38.0995 16.0311 38.0749 16.0147 38.0421 15.982C38.0258 15.9656 38.0012 15.9574 37.9684 15.9574C37.952 15.9574 37.9028 15.9738 37.8208 16.0065C37.7552 16.0393 37.7142 16.0556 37.6978 16.0556Z" fill="#FF3D00"/>
<path d="M48.2401 17.5041C47.9942 17.5041 47.8876 17.4632 47.9204 17.3813L47.6253 17.4795L47.5023 17.3813C47.5351 17.3813 47.5105 17.3732 47.4286 17.3568C47.3466 17.3568 47.2154 17.3486 47.0351 17.3322H46.8875C46.7727 17.3322 46.6744 17.3568 46.5924 17.4059L46.0513 17.1849L45.953 17.2095L45.6578 17.0867L45.5841 17.1358L45.1414 16.8658L44.92 16.9394L44.8463 16.743C44.7479 16.6121 44.6741 16.6121 44.6249 16.743L44.4528 16.473C44.3872 16.5712 44.3134 16.6039 44.2314 16.5712L44.0347 16.2275L43.9363 16.3502C43.8215 16.3502 43.7723 16.2766 43.7887 16.1293C43.5264 15.8838 43.2805 15.6383 43.0509 15.3928C42.8378 15.1473 42.6329 14.9018 42.4361 14.6563L42.4607 14.6072C42.4443 14.5254 42.4115 14.419 42.3623 14.2881C42.3295 14.1571 42.2803 14.0098 42.2148 13.8462L42.1164 13.7971L42.0426 13.5025C41.9278 13.5025 41.8705 13.0196 41.8705 12.054L41.9442 11.3912L42.018 11.4157L42.141 10.802L42.2394 10.7283C42.2558 10.1882 42.3705 9.69722 42.5837 9.25532C42.7148 8.97709 42.9854 8.55974 43.3952 8.00327L43.4198 7.88052C43.5182 7.79869 43.633 7.70049 43.7641 7.58592C43.9117 7.47136 44.0675 7.33224 44.2314 7.16858V7.07038C44.2314 6.95581 44.502 6.67758 45.043 6.23568C45.043 6.12111 45.125 5.99018 45.2889 5.84288L45.3873 5.91653C45.4529 5.91653 45.4939 5.85106 45.5103 5.72013C45.5267 5.5892 45.5513 5.50736 45.5841 5.47463C45.748 5.31096 45.9448 5.13093 46.1743 4.93453C46.4038 4.73813 46.6744 4.53355 46.9859 4.32078V4.22259L47.3302 3.92799L47.3548 3.97709L48.3631 3.28969L48.4615 3.33879C48.5271 3.33879 48.5599 3.30605 48.5599 3.24059L48.6582 3.26514C48.9206 2.97054 49.1747 2.76596 49.4206 2.65139L49.519 2.70049L49.7403 2.57774C49.7403 2.57774 49.7567 2.56956 49.7895 2.55319C49.8387 2.52046 49.9043 2.48772 49.9863 2.45499L51.88 1.79214C52.1587 1.69394 52.4702 1.62029 52.8145 1.57119C53.1588 1.52209 53.5359 1.48936 53.9458 1.473L54.1918 1.3748C54.3557 1.34206 54.5361 1.31751 54.7328 1.30114C54.946 1.28478 55.1673 1.26841 55.3968 1.25205L56.233 1.32569C56.5445 1.42389 56.6839 1.44845 56.6511 1.39934C57.0938 1.51391 57.3807 1.65303 57.5119 1.81669L57.5611 1.79214C57.725 1.79214 57.8152 1.84943 57.8316 1.96399C58.0447 1.98036 58.2497 2.12766 58.4464 2.40589C58.8563 1.93126 59.2252 1.49754 59.5531 1.10475C59.881 0.69558 60.1598 0.327332 60.3893 0C60.4549 0.490998 59.9056 1.44844 58.7415 2.87234L58.7907 3.04419V3.11784C58.9219 3.34697 58.9875 3.63339 58.9875 3.97709C58.9875 3.97709 58.9711 4.02619 58.9383 4.12439C58.9055 4.20622 58.9137 4.25532 58.9629 4.27168L58.7415 5.15548C58.6923 5.33551 58.6432 5.49918 58.594 5.64648C58.5448 5.77741 58.4792 5.8838 58.3972 5.96563C58.3808 5.982 58.348 6.02291 58.2989 6.08838C58.2661 6.13748 58.2169 6.21931 58.1513 6.33388C58.0365 6.49754 57.889 6.67758 57.7086 6.87398C57.5447 7.05401 57.3315 7.23404 57.0692 7.41407C56.856 7.57774 56.6429 7.73322 56.4298 7.88052C56.233 8.02782 56.0281 8.17512 55.8149 8.32242L55.692 8.27332L55.4952 8.51882C55.4788 8.50245 55.4542 8.49427 55.4214 8.49427C55.3886 8.49427 55.3476 8.50245 55.2985 8.51882C55.2493 8.53519 55.2083 8.53519 55.1755 8.51882C54.618 8.94435 54.3311 9.13257 54.3147 9.08347L53.5523 9.54992C53.4376 9.61538 53.1916 9.71358 52.8145 9.84452C52.4538 9.95908 52.2571 9.99182 52.2243 9.94272C52.0439 9.99182 51.839 10.0982 51.6094 10.2619H51.4619C50.9044 10.8183 50.6011 11.1702 50.5519 11.3175L50.3306 11.4648C49.8715 11.7594 49.5026 11.8903 49.2239 11.8576C49.1091 11.9067 49.0517 11.8412 49.0517 11.6612C49.0517 11.383 49.2075 11.0884 49.519 10.7774C49.5682 10.6465 49.6256 10.5483 49.6912 10.4828C49.6092 10.4992 49.5026 10.5237 49.3715 10.5565C49.2403 10.5892 49.0845 10.6219 48.9042 10.6547C48.7566 10.671 48.6664 10.6628 48.6336 10.6301C48.6336 10.581 48.732 10.5237 48.9288 10.4583L49.9371 10.2864C50.0519 10.2209 50.1338 10.1964 50.183 10.2128L50.4044 10.1391L50.4781 10.1637C50.6257 10.0818 50.847 10.0164 51.1422 9.96727C52.5522 8.75614 53.6097 7.77414 54.3147 7.02128C54.9541 6.33388 55.5362 5.69558 56.0609 5.10638C56.6019 4.51718 57.0856 3.98527 57.5119 3.51064L57.3643 3.31424C57.3643 3.00327 57.2987 2.84779 57.1676 2.84779C57.1184 2.84779 57.0856 2.85597 57.0692 2.87234L56.8232 2.65139L56.7741 2.67594L56.0854 2.20949L56.0609 2.11129L55.8641 2.13584C55.7493 2.05401 55.6264 2.02128 55.4952 2.03764H55.3722C55.1755 2.03764 55.0279 1.98854 54.9296 1.89034L54.7574 1.93944C54.5443 1.89034 54.3639 1.86579 54.2164 1.86579L52.0521 2.20949C51.6422 2.27496 51.2651 2.36497 50.9208 2.47954C50.5765 2.59411 50.2568 2.71686 49.9617 2.84779C49.9125 2.89689 49.7895 2.95417 49.5928 3.01964C49.5272 3.05237 49.396 3.12602 49.1993 3.24059C49.0025 3.35516 48.7484 3.51064 48.4369 3.70704C48.1254 3.88707 47.8712 4.04255 47.6745 4.17349C47.4941 4.30442 47.363 4.40262 47.281 4.46808L46.8383 4.86088L46.74 4.90998C46.576 5.07365 46.3629 5.27823 46.1005 5.52373C45.8546 5.75286 45.5677 6.02291 45.2398 6.33388C45.0758 6.49754 44.9036 6.76759 44.7233 7.14403H44.6741C44.6249 7.14403 44.5839 7.19313 44.5511 7.29133C44.5347 7.40589 44.5347 7.47954 44.5511 7.51227L44.2806 7.88052C44.2314 7.94599 44.1986 8.08511 44.1822 8.29787C43.8379 8.49427 43.6658 8.7725 43.6658 9.13257C43.4854 9.3617 43.387 9.47627 43.3707 9.47627L43.5182 9.81997L43.3215 10.2128C43.2231 10.7201 43.1903 11.0311 43.2231 11.1457C43.1247 11.2439 43.1083 11.3666 43.1739 11.5139L42.9772 11.784C43.1083 12.144 43.1739 12.2995 43.1739 12.2504C43.1739 12.3159 43.1329 12.3486 43.0509 12.3486L43.2477 12.6187L43.1001 12.9624L43.1247 13.2079H43.2969C43.4936 13.9116 43.6412 14.2471 43.7396 14.2144C43.8871 14.5254 44.0839 14.7218 44.3298 14.8036V15C44.3626 15.0164 44.4282 15.0736 44.5265 15.1718C44.6249 15.27 44.7397 15.4092 44.8709 15.5892L45.0184 15.491L45.1906 15.5155L45.3873 15.7365V15.7856L45.5595 16.0065L45.7808 15.9329C45.9284 16.0311 46.0021 16.0556 46.0021 16.0065L46.2973 16.1293C46.3301 16.0966 46.3465 16.0802 46.3465 16.0802C46.3792 16.0802 46.4366 16.1702 46.5186 16.3502H46.74L46.8137 16.473C47.1089 16.3748 47.363 16.3257 47.5761 16.3257C47.904 16.3257 48.1418 16.4239 48.2893 16.6203C48.3057 16.6039 48.3303 16.5957 48.3631 16.5957C48.4451 16.5957 48.5353 16.6203 48.6336 16.6694C48.7484 16.7185 48.814 16.743 48.8304 16.743L48.8796 16.7185L49.3715 16.6694L49.4698 16.7185L49.5928 16.5221C49.6748 16.5876 49.8141 16.6039 50.0109 16.5712L50.4536 16.4975C50.4536 16.4975 50.4863 16.4812 50.5519 16.4484C50.6339 16.4321 50.7487 16.3912 50.8962 16.3257C50.9454 16.3748 51.011 16.3993 51.093 16.3993C51.2897 16.3993 51.3881 16.3993 51.3881 16.3993L51.9538 16.2029L52.0029 16.2766L52.3227 16.0802C52.3718 16.0966 52.421 16.0802 52.4702 16.0311L52.8145 15.982L53.0605 16.0802L53.2818 16.0556C53.2818 16.0229 53.2818 15.982 53.2818 15.9329C53.2982 15.9002 53.3146 15.8592 53.331 15.8101L53.4294 15.8347L53.7245 15.5892L53.872 15.6137L54.4131 15.4173L54.5115 15.491L54.9541 15.1964L55.0279 15.2455L55.5198 14.9263L55.569 14.9509C55.7985 14.8527 56.0936 14.6563 56.4543 14.3617L56.4789 14.4108C57.1184 13.8707 58.0693 13.1178 59.3318 12.1522L59.3564 12.2013C59.4875 12.0867 59.6351 11.9476 59.799 11.784C59.963 11.6203 60.1516 11.4239 60.3647 11.1948L60.4385 11.2193L60.9303 10.6056L61.0533 10.6301C61.0369 10.7283 60.9795 10.8347 60.8812 10.9493C60.7828 11.0475 60.7336 11.1211 60.7336 11.1702C60.7336 11.2029 60.6598 11.293 60.5123 11.4403C60.3811 11.5712 60.2991 11.6367 60.2663 11.6367C60.2335 11.6367 59.6843 12.1113 58.6186 13.0606C57.5692 13.9935 56.9872 14.4599 56.8724 14.4599C56.7249 14.6236 56.4543 14.7954 56.0609 14.9754C55.7001 15.1391 55.4378 15.3028 55.2739 15.4664L55.2493 15.4173L55.1263 15.4419L54.5115 15.8101L54.4131 15.8592C54.2 15.9738 53.9622 16.0884 53.6999 16.2029C53.454 16.3175 53.167 16.4157 52.8391 16.4975L52.7899 16.4484L52.3472 16.7185L52.2735 16.6939C52.0603 16.7267 51.8062 16.7758 51.5111 16.8412C51.2323 16.9231 50.9044 17.0213 50.5273 17.1358L50.429 17.1113C50.3142 17.1277 50.1912 17.144 50.0601 17.1604C49.9453 17.1768 49.8141 17.1931 49.6666 17.2095C49.6666 17.2422 49.642 17.2586 49.5928 17.2586C49.5272 17.2586 49.4698 17.2504 49.4206 17.234C49.3878 17.2177 49.3796 17.2095 49.396 17.2095C49.3141 17.2259 49.1337 17.275 48.855 17.3568C48.5927 17.455 48.3877 17.5041 48.2401 17.5041ZM52.1505 9.64812L52.3718 9.50082L52.4456 9.57447L53.1096 9.20622L53.208 9.25532L53.4294 9.05892L53.5277 9.10802L53.7245 8.98527L53.7737 9.03437C54.1508 8.65794 54.4951 8.46154 54.8066 8.44517L55.1017 8.32242L55.0771 8.19967L55.2247 8.00327C55.7985 7.67594 56.3642 7.16039 56.9216 6.45663C57.4135 5.8347 57.6758 5.3928 57.7086 5.13093C57.7742 5.1473 57.807 4.95908 57.807 4.56628C57.807 4.45172 57.7988 4.35352 57.7824 4.27168C57.7824 4.17349 57.7742 4.08347 57.7578 4.00164C57.4299 4.34534 57.0692 4.72995 56.6757 5.15548C56.2986 5.58101 55.8805 6.04746 55.4214 6.55483C55.323 6.66939 55.0033 6.98854 54.4623 7.51227C53.9212 8.01964 53.1506 8.73159 52.1505 9.64812Z" fill="#FF3D00"/>
<path d="M63.1186 17.6514C63.0366 17.635 62.9874 17.5368 62.971 17.3568C62.9546 17.1931 62.9382 17.0949 62.9218 17.0622V16.8412C62.9218 16.563 62.9218 16.3175 62.9218 16.1047C62.9382 15.892 62.9628 15.7283 62.9956 15.6137L63.0694 15.3437L63.2661 14.5581C63.2497 14.5417 63.2416 14.509 63.2416 14.4599L63.2907 14.0917C63.3071 14.0753 63.3563 13.9362 63.4383 13.6743L63.4137 13.6498V13.6252C63.3317 13.6579 63.2252 13.7725 63.094 13.9689C63.0612 13.9853 63.0202 14.0098 62.971 14.0426C62.9382 14.0753 62.8972 14.1489 62.8481 14.2635L62.4792 14.7054C62.4628 14.7218 62.43 14.7463 62.3808 14.7791C62.3316 14.8118 62.2578 14.8773 62.1594 14.9754C62.1266 14.9754 62.0857 14.9836 62.0365 15C61.9053 15.1309 61.7987 15.2128 61.7168 15.2455C61.684 15.311 61.6348 15.3846 61.5692 15.4664C61.5036 15.5483 61.4298 15.6301 61.3479 15.7119V15.5646C61.3643 15.5483 61.3479 15.5401 61.2987 15.5401C61.2823 15.5401 61.2085 15.6137 61.0773 15.761L61.1265 15.8101L61.2987 15.6628C61.2167 15.8265 61.1511 15.9247 61.1019 15.9574C60.5773 16.3339 60.233 16.5221 60.069 16.5221C60.0526 16.5221 60.0362 16.5139 60.0198 16.4975C60.0034 16.4812 59.987 16.473 59.9706 16.473C59.9542 16.473 59.9378 16.4812 59.9214 16.4975C59.9214 16.5303 59.9132 16.5466 59.8968 16.5466C59.8968 16.5466 59.8886 16.5466 59.8723 16.5466H59.8968C59.8968 16.5466 59.8968 16.5385 59.8968 16.5221C59.8968 16.5057 59.8149 16.4403 59.6509 16.3257C59.6181 16.3257 59.5607 16.3093 59.4788 16.2766C59.4132 16.2439 59.3066 16.162 59.159 16.0311L58.9869 15.4664V15.3928C59.0525 15.2782 59.0771 15.1637 59.0607 15.0491C59.0607 15.0327 59.0525 15.0164 59.0361 15C59.0361 14.9182 59.0361 14.8118 59.0361 14.6809C59.0525 14.5499 59.0689 14.4026 59.0853 14.239C59.1344 13.9935 59.1918 13.8789 59.2574 13.8953C59.2082 13.8134 59.2164 13.7152 59.282 13.6007C59.282 13.5843 59.2902 13.5761 59.3066 13.5761C59.3394 13.5761 59.364 13.5679 59.3804 13.5516C59.3476 13.4861 59.3312 13.4452 59.3312 13.4288C59.3312 13.3633 59.364 13.2979 59.4296 13.2324C59.446 13.0851 59.4542 12.9869 59.4542 12.9378C59.4706 12.8887 59.4788 12.8805 59.4788 12.9133C59.4788 12.9133 59.487 12.8969 59.5033 12.8642C59.5197 12.8314 59.5361 12.8069 59.5525 12.7905C59.5034 12.7414 59.4788 12.7005 59.4788 12.6678C59.4788 12.6514 59.487 12.635 59.5033 12.6187C59.5361 12.5859 59.5525 12.5614 59.5525 12.545C59.6345 12.545 59.7083 12.5123 59.7739 12.4468C59.7739 12.4304 59.7657 12.4223 59.7493 12.4223C59.7329 12.3568 59.7657 12.2913 59.8477 12.2259C59.9296 12.144 59.9788 12.0867 59.9952 12.054C59.9952 12.0376 59.9624 12.0295 59.8968 12.0295V11.9313C59.8804 11.8985 59.8723 11.8658 59.8723 11.8331L59.946 11.7594C59.9788 11.7758 60.0034 11.7758 60.0198 11.7594C60.0034 11.7267 59.9952 11.6694 59.9952 11.5876C59.9952 11.4239 59.9706 11.3421 59.9214 11.3421C59.8559 11.3421 59.4952 11.5221 58.8393 11.8822C58.8393 11.8331 58.8557 11.784 58.8885 11.7349C58.9213 11.6694 58.9295 11.6285 58.9131 11.6121C59.0443 11.5466 59.1181 11.4975 59.1345 11.4648C59.1672 11.4321 59.2082 11.4157 59.2574 11.4157C59.2738 11.4157 59.2984 11.3993 59.3312 11.3666C59.3476 11.3502 59.3558 11.3421 59.3558 11.3421C59.3558 11.3257 59.3722 11.3175 59.405 11.3175C59.4214 11.3175 59.4378 11.3257 59.4542 11.3421L59.6755 11.2684C59.7247 11.2193 59.7411 11.1948 59.7247 11.1948C59.7739 11.1948 59.7985 11.1866 59.7985 11.1702H59.8231C59.8886 11.1702 59.946 11.1293 59.9952 11.0475H60.0444C60.0608 11.0311 60.069 11.0311 60.069 11.0475C60.069 11.0638 60.0772 11.0638 60.0936 11.0475C60.11 11.0311 60.1264 11.0229 60.1428 11.0229C60.2575 11.0229 60.3723 10.9738 60.4871 10.8756C60.5855 10.9083 60.6346 10.9247 60.6346 10.9247C60.651 10.9247 60.6756 10.9083 60.7084 10.8756C60.7412 10.8756 60.7904 10.9083 60.856 10.9738C60.9216 10.9738 60.9544 10.9493 60.9544 10.9002C60.9544 10.9002 61.0035 10.9165 61.1019 10.9493C61.1183 11.0147 61.1675 11.072 61.2495 11.1211C61.2495 11.2029 61.3151 11.3502 61.4462 11.563C61.4298 11.5794 61.397 11.6121 61.3479 11.6612C61.2987 11.7103 61.2331 11.7921 61.1511 11.9067C61.1511 11.9558 61.1429 11.9967 61.1265 12.0295L60.8068 12.3732C60.7904 12.5205 60.6674 12.7414 60.4379 13.036C60.4379 13.1506 60.3887 13.2979 60.2903 13.4779C60.2084 13.6416 60.1674 13.7398 60.1674 13.7725C60.0198 13.838 59.946 13.9935 59.946 14.239C59.946 14.2717 59.9624 14.329 59.9952 14.4108C60.028 14.4763 60.0444 14.5172 60.0444 14.5336C60.0444 14.5499 60.028 14.5827 59.9952 14.6318C59.9788 14.6809 59.9706 14.7218 59.9706 14.7545V14.8772H59.946L59.9706 14.9018C59.9706 14.9182 59.9706 14.9591 59.9706 15.0245C59.9706 15.0736 59.9788 15.1391 59.9952 15.2209C59.9952 15.2209 60.0116 15.2373 60.0444 15.27C60.0936 15.401 60.1346 15.4664 60.1674 15.4664C60.2002 15.5155 60.2002 15.5646 60.1674 15.6137C60.233 15.6465 60.2494 15.6956 60.2166 15.761L60.2903 15.8347C60.3559 15.802 60.4379 15.7529 60.5363 15.6874C60.651 15.6219 60.774 15.5401 60.9052 15.4419C60.9872 15.5237 61.0363 15.5646 61.0527 15.5646C61.0691 15.5646 61.0855 15.5401 61.1019 15.491C61.2823 15.3928 61.397 15.3028 61.4462 15.2209C61.5938 15.1391 61.7495 15 61.9135 14.8036C61.9135 14.82 61.9217 14.8363 61.9381 14.8527H61.9873L62.0611 14.7054C62.1266 14.6727 62.2496 14.5663 62.43 14.3863L62.6021 14.2144C62.6021 14.1326 62.6513 14.0671 62.7497 14.018C62.8644 13.9525 63.0694 13.7398 63.3645 13.3797C63.3645 13.3961 63.3727 13.4124 63.3891 13.4288C63.4875 13.2815 63.5531 13.1506 63.5859 13.036C63.5859 13.0033 63.5777 12.9705 63.5613 12.9378C63.5613 12.8723 63.5859 12.7823 63.635 12.6678C63.6842 12.5368 63.7252 12.4059 63.758 12.275L63.8564 12.2013C64.0531 12.1195 64.1269 11.9231 64.0777 11.6121H64.1515C64.1679 11.6121 64.2007 11.5794 64.2499 11.5139C64.3155 11.4321 64.381 11.3912 64.4466 11.3912C64.463 11.3912 64.4794 11.3993 64.4958 11.4157C64.5286 11.4321 64.5532 11.4403 64.5696 11.4403C64.586 11.4403 64.6106 11.3993 64.6434 11.3175C64.7254 11.3339 64.7745 11.383 64.7909 11.4648C64.7909 11.4648 64.8073 11.4239 64.8401 11.3421C64.8893 11.3093 64.9385 11.252 64.9877 11.1702L65.0369 10.9738L65.209 10.7038C65.2746 10.671 65.3238 10.6301 65.3566 10.581C65.3894 10.5483 65.4222 10.5319 65.455 10.5319C65.5369 10.5319 65.5615 10.6056 65.5287 10.7529L65.4304 10.8511C65.3484 10.9329 65.2664 11.0802 65.1844 11.293C65.1844 11.293 65.1762 11.3011 65.1598 11.3175C65.1434 11.3175 65.1188 11.3257 65.0861 11.3421C65.0861 11.3912 65.0451 11.4566 64.9631 11.5385L65.2582 11.8085C65.209 11.8576 65.1762 11.9313 65.1598 12.0295C65.0943 12.0786 64.9877 12.2177 64.8401 12.4468C64.8237 12.4795 64.8073 12.5205 64.7909 12.5696C64.7745 12.6187 64.7499 12.6841 64.7172 12.766L64.4712 13.0851L64.4958 13.1833L64.422 13.1342C64.3892 13.1997 64.3564 13.2733 64.3237 13.3552C64.2909 13.4206 64.2581 13.4943 64.2253 13.5761C64.1925 13.6416 64.1269 13.7234 64.0285 13.8216V13.8707C63.9957 13.9034 63.9548 14.018 63.9056 14.2144C63.8892 14.2308 63.8646 14.2799 63.8318 14.3617C63.799 14.4272 63.7416 14.5172 63.6596 14.6318C63.676 14.6481 63.6842 14.689 63.6842 14.7545L63.5613 14.9018C63.5121 15.0818 63.4547 15.311 63.3891 15.5892C63.3399 15.8511 63.2825 16.162 63.217 16.5221C63.2006 16.6039 63.1842 16.6776 63.1678 16.743C63.1678 16.8249 63.1514 16.8985 63.1186 16.964L63.1432 17.0622V17.3813C63.1104 17.5123 63.1022 17.6023 63.1186 17.6514Z" fill="#FF3D00"/>
<path d="M65.8667 16.3011C65.8503 16.3011 65.8257 16.2848 65.7929 16.252C65.7765 16.2357 65.7519 16.2275 65.7191 16.2275C65.7355 16.2275 65.7027 16.2439 65.6208 16.2766L65.3256 15.9083V15.2946L65.3748 15.2455V15.1964C65.3748 15.1637 65.383 15.1227 65.3994 15.0736C65.4322 15.0245 65.4568 14.9673 65.4732 14.9018C65.4568 14.8854 65.4486 14.8527 65.4486 14.8036C65.4486 14.7218 65.506 14.6481 65.6208 14.5827C65.6044 14.5336 65.6044 14.4517 65.6208 14.3372L65.6946 14.1899C65.7273 14.1408 65.7191 14.0917 65.67 14.0426L65.7683 13.5025C65.7847 13.4861 65.8093 13.4288 65.8421 13.3306L65.9405 12.4468C65.9241 12.4304 65.9159 12.3977 65.9159 12.3486C65.9487 12.2831 65.9651 12.2422 65.9651 12.2259C65.9651 12.1113 65.9569 12.0376 65.9405 12.0049C65.9241 11.9722 65.9077 11.9394 65.8913 11.9067C65.9077 11.8412 65.9159 11.7594 65.9159 11.6612C65.9159 11.5139 65.8585 11.4403 65.7437 11.4403C65.7437 11.4403 65.7273 11.4484 65.6946 11.4648C65.6782 11.4648 65.6454 11.473 65.5962 11.4894L65.5716 11.3912V11.3666C65.5716 11.2848 65.6454 11.2029 65.7929 11.1211C65.8093 11.1211 65.8175 11.1293 65.8175 11.1457H65.8667C65.9323 11.1457 65.9979 11.1129 66.0634 11.0475L66.4324 11.3421C66.4487 11.3421 66.4405 11.383 66.4078 11.4648L66.5307 11.6367V12.2259C66.5471 12.2586 66.5553 12.2831 66.5553 12.2995C66.5717 12.3159 66.5799 12.3322 66.5799 12.3486C66.5799 12.365 66.5717 12.3813 66.5553 12.3977C66.5389 12.4141 66.5307 12.4386 66.5307 12.4714V13.3306C66.5143 13.3306 66.4979 13.3388 66.4815 13.3552C66.4979 13.3715 66.5061 13.5761 66.5061 13.9689C66.5061 14.0016 66.4897 14.0507 66.4569 14.1162C66.4242 14.1817 66.4078 14.2226 66.4078 14.239C66.4078 14.2553 66.4242 14.2962 66.4569 14.3617H66.5061C66.5061 14.3617 66.5471 14.239 66.6291 13.9935H66.7029C66.7029 13.9607 66.7029 13.928 66.7029 13.8953C66.7029 13.8462 66.7111 13.7889 66.7275 13.7234L67.0472 13.3552C67.0636 13.3224 67.0882 13.2815 67.121 13.2324C67.1538 13.1669 67.1865 13.1015 67.2193 13.036C67.2357 13.0033 67.2931 12.9378 67.3915 12.8396C67.4079 12.8069 67.4243 12.7741 67.4407 12.7414C67.4571 12.6923 67.4817 12.635 67.5145 12.5696L67.6866 12.4223C67.6866 12.3895 67.703 12.3568 67.7358 12.3241C67.785 12.275 67.8178 12.2259 67.8342 12.1768C67.9162 12.1604 67.9735 12.0786 68.0063 11.9313C68.1047 11.8822 68.2359 11.7758 68.3998 11.6121V11.5139C68.531 11.3993 68.5884 11.3421 68.572 11.3421H68.5966C68.5966 11.3584 68.6048 11.3666 68.6212 11.3666C68.6048 11.3666 68.7031 11.2439 68.9163 10.9984C68.9983 10.9656 69.1376 10.8347 69.3344 10.6056C69.4491 10.5565 69.5803 10.4746 69.7279 10.3601H69.9492L70.2197 10.4092C70.3017 10.4419 70.3919 10.5074 70.4903 10.6056C70.5886 10.6874 70.6624 10.8429 70.7116 11.072V11.3175C70.7116 11.3502 70.7034 11.4075 70.687 11.4894C70.687 11.5548 70.6788 11.6448 70.6624 11.7594C70.646 12.0049 70.4329 12.3159 70.023 12.6923C69.9574 12.6923 69.8672 12.7332 69.7525 12.8151V12.545C69.7853 12.5123 69.818 12.4714 69.8508 12.4223C69.8836 12.3568 69.9164 12.2913 69.9492 12.2259C69.9492 12.1931 69.8836 12.1604 69.7525 12.1277C69.8508 11.9313 69.9 11.8085 69.9 11.7594C69.9 11.7103 69.8754 11.653 69.8262 11.5876C69.7935 11.6039 69.7689 11.6203 69.7525 11.6367C69.7361 11.6367 69.7279 11.6367 69.7279 11.6367C69.5967 11.6367 69.5393 11.6285 69.5557 11.6121C69.5393 11.5957 69.5311 11.5548 69.5311 11.4894H69.4819C69.4491 11.4894 69.4 11.5221 69.3344 11.5876C69.2688 11.6367 69.2278 11.6612 69.2114 11.6612C69.195 11.6612 69.1868 11.653 69.1868 11.6367H69.1376C69.1212 11.6367 69.0966 11.653 69.0638 11.6858C69.0311 11.7185 68.9983 11.7349 68.9655 11.7349C68.9327 11.7349 68.8999 11.7103 68.8671 11.6612C68.8343 11.6612 68.8097 11.6694 68.7933 11.6858C68.8261 11.7512 68.8261 11.8249 68.7933 11.9067C68.7277 12.0049 68.6622 12.054 68.5966 12.054C68.5802 12.054 68.5556 12.0458 68.5228 12.0295C68.5064 12.0131 68.49 12.0049 68.4736 12.0049C68.4736 12.0867 68.4818 12.144 68.4982 12.1768L68.3014 12.4223C68.2687 12.455 68.2277 12.4714 68.1785 12.4714C68.1621 12.4714 68.1375 12.455 68.1047 12.4223L67.9817 12.766H67.9571C67.8752 12.766 67.7522 12.8723 67.5882 13.0851L67.4899 13.1342C67.2767 13.5106 67.0882 13.8216 66.9242 14.0671C66.7767 14.3126 66.6619 14.4845 66.5799 14.5827V14.7791C66.4651 14.8609 66.3996 15.0327 66.3832 15.2946C66.3504 15.3273 66.3176 15.3846 66.2848 15.4664C66.3176 15.5319 66.3176 15.6301 66.2848 15.761C66.2684 15.7774 66.252 15.8183 66.2356 15.8838C66.2192 15.9329 66.1946 16.0065 66.1618 16.1047C66.0798 16.2357 65.9815 16.3011 65.8667 16.3011Z" fill="#FF3D00"/>
<path d="M72.1478 16.0065C72.0986 16.0065 72.0576 15.9656 72.0249 15.8838C72.0085 15.9002 72.0003 15.9165 72.0003 15.9329H71.8527L71.7789 15.7856C71.7625 15.802 71.7543 15.8183 71.7543 15.8347C71.7379 15.8347 71.7133 15.8183 71.6805 15.7856L71.6068 15.8347C71.5248 15.7529 71.4346 15.6465 71.3362 15.5155C71.2543 15.3682 71.2051 15.2209 71.1887 15.0736C71.1723 15.0573 71.1395 15.0491 71.0903 15.0491V14.8527C71.1559 14.8363 71.1969 14.7054 71.2133 14.4599L71.2871 14.3617V14.239L71.2379 14.1899L71.3362 14.1162L71.6068 13.3552L71.8527 13.0851V13.0115C72.0494 12.8805 72.1724 12.7414 72.2216 12.5941C72.2872 12.5941 72.32 12.5614 72.32 12.4959C72.5331 12.4304 72.6151 12.3241 72.5659 12.1768C72.5987 12.1604 72.6151 12.1522 72.6151 12.1522C72.6315 12.1522 72.6397 12.1522 72.6397 12.1522C72.6561 12.1522 72.6889 12.1686 72.7381 12.2013C72.7872 12.2177 72.82 12.2259 72.8364 12.2259C72.8692 12.2259 72.8938 12.2177 72.9102 12.2013C72.943 12.1849 72.9676 12.1768 72.984 12.1768C73.0496 12.2422 73.0906 12.275 73.107 12.275C73.1889 12.275 73.2709 12.2422 73.3529 12.1768C73.3529 12.1931 73.3611 12.2177 73.3775 12.2504C73.3939 12.2831 73.4021 12.3077 73.4021 12.3241C73.4021 12.4059 73.3693 12.4795 73.3037 12.545L73.3775 12.6432C73.3775 12.7578 73.2791 12.9378 73.0824 13.1833C72.8856 13.3961 72.7463 13.5188 72.6643 13.5516C72.6479 13.5679 72.6315 13.6007 72.6151 13.6498C72.5987 13.6825 72.5741 13.7152 72.5413 13.748H72.4921L72.4429 13.6989L72.197 14.018C72.197 14.0835 72.1314 14.2062 72.0003 14.3863C71.9511 14.4026 71.9101 14.4108 71.8773 14.4108C71.8609 14.3944 71.8527 14.3944 71.8527 14.4108V14.5827C71.9347 14.7299 71.9675 14.8282 71.9511 14.8772C71.9019 14.9754 71.8773 15.0327 71.8773 15.0491C71.8773 15.0327 71.9265 15.0982 72.0249 15.2455C72.0085 15.2619 72.0003 15.3191 72.0003 15.4173C72.1314 15.4337 72.3036 15.5074 72.5167 15.6383H72.6151C72.6807 15.6383 72.7217 15.6301 72.7381 15.6137C72.7709 15.581 72.7872 15.5646 72.7872 15.5646C72.8036 15.5646 72.8118 15.5728 72.8118 15.5892H72.8364C72.8528 15.5892 72.8938 15.5565 72.9594 15.491C73.025 15.4255 73.066 15.3928 73.0824 15.3928C73.0988 15.3928 73.107 15.401 73.107 15.4173C73.107 15.4337 73.1152 15.4419 73.1316 15.4419C73.148 15.4419 73.1807 15.4337 73.2299 15.4173C73.2791 15.401 73.3201 15.3928 73.3529 15.3928V15.3191C73.3365 15.3028 73.3365 15.2946 73.3529 15.2946V15.3191C73.3693 15.3355 73.4267 15.3601 73.525 15.3928L73.5005 15.2946C73.5496 15.2782 73.5906 15.2291 73.6234 15.1473C73.7054 15.1473 73.7792 15.1391 73.8448 15.1227C73.9267 15.09 73.9677 15.0491 73.9677 15H74.1645C74.1645 15.0327 74.1809 15.0491 74.2137 15.0491C74.3776 15.0491 74.4678 14.9427 74.4842 14.73L74.6318 14.5827C74.6318 14.5827 74.6481 14.599 74.6809 14.6318C74.7465 14.5663 74.8039 14.5336 74.8531 14.5336C74.8695 14.5336 74.8777 14.5417 74.8777 14.5581C74.8941 14.5745 74.9187 14.5827 74.9515 14.5827C75.0007 14.5827 75.0498 14.5581 75.099 14.509C75.1482 14.4599 75.1728 14.4272 75.1728 14.4108C75.2056 14.3781 75.2466 14.3453 75.2958 14.3126C75.345 14.2799 75.3859 14.2308 75.4187 14.1653L75.5663 14.239C75.5499 14.2226 75.7221 14.0753 76.0828 13.7971C76.2467 13.7316 76.3287 13.6825 76.3287 13.6498C76.3943 13.6498 76.4599 13.6252 76.5254 13.5761V13.5025L76.8698 13.3306V13.4779H76.7468C76.7304 13.4943 76.7222 13.5434 76.7222 13.6252L76.1565 14.0671C76.1238 14.0671 76.1156 14.0589 76.132 14.0426H76.1074C76.1237 14.0426 76.05 14.1244 75.886 14.2881C75.8532 14.3208 75.7876 14.3372 75.6893 14.3372C75.4761 14.5336 75.3941 14.6236 75.4433 14.6072C75.4269 14.5908 75.4105 14.5827 75.3941 14.5827C75.3778 14.599 75.3696 14.6318 75.3696 14.6809H75.345C75.2794 14.6809 75.181 14.7463 75.0498 14.8772C75.0334 14.8772 75.0088 14.8772 74.9761 14.8772C74.9433 14.8772 74.9105 14.8854 74.8777 14.9018C74.8121 14.9509 74.7301 15.0164 74.6318 15.0982C74.5498 15.1637 74.4514 15.2455 74.3366 15.3437H74.1891C74.0743 15.4419 73.9923 15.491 73.9431 15.491H73.8694C73.853 15.4746 73.8366 15.4664 73.8202 15.4664C73.8038 15.4664 73.7382 15.4992 73.6234 15.5646C73.5251 15.6301 73.4595 15.6628 73.4267 15.6628H73.4021C73.4021 15.6465 73.3939 15.6383 73.3775 15.6383C73.3611 15.6383 73.2955 15.671 73.1807 15.7365C73.0824 15.7856 73.025 15.8101 73.0086 15.8101H72.984C72.984 15.7938 72.9676 15.7856 72.9348 15.7856C72.9184 15.7856 72.8938 15.7938 72.861 15.8101C72.8446 15.8265 72.8036 15.8429 72.7381 15.8592C72.5741 15.9411 72.5249 15.982 72.5905 15.982C72.5741 15.982 72.5249 15.9738 72.4429 15.9574C72.361 15.9411 72.3036 15.9329 72.2708 15.9329L72.1478 16.0065ZM77.0665 13.2815C77.0501 13.2815 77.0337 13.2733 77.0173 13.257C77.0173 13.2242 77.0091 13.2079 76.9927 13.2079L77.337 12.8396C77.4026 12.8396 77.4354 12.856 77.4354 12.8887C77.4354 12.9542 77.378 13.036 77.2632 13.1342C77.1649 13.216 77.0993 13.2651 77.0665 13.2815ZM73.8448 11.3175C73.7136 11.3175 73.5332 11.2275 73.3037 11.0475C73.107 10.8511 73.0086 10.6956 73.0086 10.581C73.2053 10.4992 73.4185 10.4092 73.648 10.311C73.8939 10.1964 74.1481 10.0736 74.4104 9.94272H74.435C74.3694 10.1227 74.2792 10.27 74.1645 10.3846L74.2137 10.5565V10.7038L74.0907 10.8511C74.0907 11.162 74.0087 11.3175 73.8448 11.3175Z" fill="#FF3D00"/>
<path d="M78.2683 16.1047C78.2847 16.1047 78.2683 16.0802 78.2191 16.0311C78.1863 16.0638 78.1126 16.0802 77.9978 16.0802C77.965 16.0802 77.9158 16.0638 77.8502 16.0311C77.801 16.0147 77.7682 16.0065 77.7518 16.0065C77.7355 16.0065 77.6945 16.0147 77.6289 16.0311C77.5797 16.0475 77.5387 16.0556 77.5059 16.0556C77.4895 16.0556 77.4403 16.0393 77.3584 16.0065C77.2764 15.9902 77.219 15.982 77.1862 15.982C77.1698 15.7692 76.9813 15.6874 76.6206 15.7365V15.6874C76.6206 15.5728 76.596 15.4828 76.5468 15.4173C76.4976 15.3519 76.4566 15.2455 76.4238 15.0982C76.4074 15.0818 76.3746 15.0491 76.3254 15C76.2926 14.9345 76.2762 14.8118 76.2762 14.6318C76.2762 14.6318 76.2926 14.599 76.3254 14.5336C76.3418 14.5172 76.3254 14.4763 76.2762 14.4108C76.2926 14.3944 76.3254 14.2635 76.3746 14.018C76.391 13.9362 76.3992 13.8707 76.3992 13.8216C76.4156 13.7725 76.4238 13.7316 76.4238 13.6989C76.3254 13.617 76.2762 13.5434 76.2762 13.4779L76.35 13.3061C76.3664 13.3224 76.4238 13.3306 76.5222 13.3306H76.6206C76.6533 13.2815 76.6861 13.2324 76.7189 13.1833C76.7681 13.1178 76.8255 13.0524 76.8911 12.9869C76.9895 12.9869 77.0796 12.8969 77.1616 12.7169L77.137 12.6187C77.1534 12.5859 77.1698 12.5614 77.1862 12.545C77.1862 12.545 77.1944 12.545 77.2108 12.545C77.2108 12.545 77.2026 12.545 77.1862 12.545C77.2026 12.545 77.2272 12.5532 77.26 12.5696C77.2764 12.5532 77.3092 12.5205 77.3584 12.4714C77.4075 12.4223 77.4895 12.3568 77.6043 12.275C77.6535 12.2095 77.7355 12.1277 77.8502 12.0295C78.047 11.8985 78.1535 11.8331 78.1699 11.8331C78.2027 11.8331 78.2765 11.784 78.3913 11.6858C78.4241 11.7021 78.4487 11.7185 78.4651 11.7349C78.4815 11.7349 78.4897 11.7349 78.4897 11.7349C78.5224 11.7349 78.6536 11.6776 78.8831 11.563C78.8667 11.6285 78.8831 11.6612 78.9323 11.6612H79.1045C79.1865 11.6121 79.2275 11.5876 79.2275 11.5876C79.3914 11.5876 79.5882 11.6776 79.8177 11.8576C79.8341 11.874 79.8587 11.8822 79.8915 11.8822V12.275C79.8587 12.275 79.8259 12.2586 79.7931 12.2259L79.6947 12.4468C79.7603 12.545 79.7931 12.5941 79.7931 12.5941C79.7603 12.6105 79.6783 12.7496 79.5472 13.0115V13.2079C79.4816 13.2079 79.4242 13.216 79.375 13.2324C79.1127 13.4124 78.9651 13.5025 78.9323 13.5025H78.8831C78.8667 13.4861 78.8504 13.4779 78.834 13.4779C78.7684 13.4779 78.6782 13.5106 78.5634 13.5761C78.547 13.5925 78.5224 13.6252 78.4897 13.6743C78.4569 13.707 78.4159 13.7234 78.3667 13.7234H78.3421C78.3421 13.707 78.3339 13.6989 78.3175 13.6989C78.2847 13.6989 78.1945 13.7316 78.047 13.7971C77.9158 13.8462 77.842 13.8707 77.8256 13.8707H77.7764C77.76 13.8543 77.7436 13.8462 77.7273 13.8462L77.6535 13.9198H77.5059C77.4403 13.9198 77.3911 13.9034 77.3584 13.8707H77.0386C77.0386 13.9362 77.014 14.0344 76.9649 14.1653C76.9321 14.2962 76.9157 14.3699 76.9157 14.3863C76.9157 14.4354 76.9731 14.5499 77.0878 14.73C77.1042 14.7463 77.137 14.7872 77.1862 14.8527C77.2354 14.9018 77.3092 14.9673 77.4075 15.0491C77.4403 15.1146 77.4895 15.18 77.5551 15.2455C77.5879 15.2619 77.6207 15.27 77.6535 15.27C77.6863 15.27 77.7273 15.2782 77.7764 15.2946L77.8502 15.3928C77.8994 15.3601 77.9732 15.3601 78.0716 15.3928L78.1945 15.4664C78.2765 15.4664 78.3175 15.4664 78.3175 15.4664C78.3175 15.4501 78.3175 15.4419 78.3175 15.4419C78.3339 15.4583 78.3339 15.4664 78.3175 15.4664C78.3339 15.4828 78.3503 15.491 78.3667 15.491C78.3831 15.491 78.3995 15.4828 78.4159 15.4664C78.4487 15.4337 78.4733 15.4173 78.4897 15.4173H78.5388C78.5388 15.4337 78.547 15.4419 78.5634 15.4419C78.6126 15.4419 78.67 15.4092 78.7356 15.3437C78.7848 15.3601 78.834 15.3601 78.8831 15.3437L78.9077 15.3682V15.4419C78.8749 15.4583 78.834 15.4828 78.7848 15.5155C78.7356 15.5483 78.67 15.581 78.588 15.6137V15.7119C78.588 15.7283 78.6208 15.7365 78.6864 15.7365C78.9651 15.7365 79.1865 15.6547 79.3504 15.491C79.3832 15.5074 79.4078 15.5237 79.4242 15.5401C79.4406 15.5401 79.4488 15.5401 79.4488 15.5401C79.4816 15.5401 79.498 15.5237 79.498 15.491H79.6209C79.6537 15.4746 79.7029 15.4337 79.7685 15.3682C79.8341 15.2864 79.8997 15.2455 79.9653 15.2455L80.0636 15.27L80.1374 15.0736L80.2112 15.1227C80.244 15.09 80.3178 15.0736 80.4325 15.0736C80.4325 15.0736 80.4325 15.0655 80.4325 15.0491C80.4325 15.0327 80.4407 15.0164 80.4571 15C80.6211 14.9673 80.826 14.8281 81.072 14.5827H81.1703L81.5392 14.2881C81.5392 14.2553 81.5638 14.2062 81.613 14.1408C81.6294 14.1408 81.654 14.1571 81.6868 14.1899L81.9081 13.8953C81.9573 13.8953 82.0147 13.8707 82.0803 13.8216L82.1541 13.8953L81.9819 14.1162C81.8835 14.1817 81.7606 14.2799 81.613 14.4108C81.4654 14.5417 81.3015 14.6972 81.1211 14.8772C81.0064 14.8772 80.9408 14.91 80.9244 14.9754C80.7768 15.0409 80.6785 15.1146 80.6293 15.1964L80.5555 15.1227C80.5391 15.1391 80.4899 15.18 80.4079 15.2455C80.3424 15.2946 80.2276 15.3601 80.0636 15.4419C80.0308 15.4746 79.9816 15.5237 79.9161 15.5892C79.8505 15.6383 79.7849 15.6628 79.7193 15.6628C79.6865 15.6628 79.6783 15.6547 79.6947 15.6383H79.6701C79.6045 15.6383 79.539 15.6628 79.4734 15.7119C79.4078 15.761 79.375 15.802 79.375 15.8347C79.3586 15.8347 79.334 15.8183 79.3012 15.7856C79.0881 15.9002 78.9651 15.9574 78.9323 15.9574H78.8831L78.8585 15.9329L78.4897 16.0311C78.4897 16.0311 78.4897 16.0229 78.4897 16.0065C78.4897 15.9902 78.4815 15.9738 78.4651 15.9574L78.3913 16.0556C78.3749 16.0556 78.3503 16.0638 78.3175 16.0802C78.3011 16.0966 78.2847 16.1047 78.2683 16.1047ZM77.6781 13.6252C77.6617 13.5761 77.6781 13.5516 77.7273 13.5516C77.7436 13.5516 77.7518 13.5597 77.7518 13.5761H77.801C77.8174 13.5761 77.8502 13.5516 77.8994 13.5025C77.965 13.4534 78.006 13.4288 78.0224 13.4288C78.0388 13.4288 78.0634 13.437 78.0962 13.4534C78.1289 13.4697 78.1535 13.4779 78.1699 13.4779C78.1371 13.4779 78.1781 13.4206 78.2929 13.3061L78.3667 13.3552C78.7438 13.1097 78.9323 12.8969 78.9323 12.7169C78.9323 12.5041 78.8258 12.3732 78.6126 12.3241C78.4159 12.275 78.2273 12.2259 78.047 12.1768C78.0142 12.2095 77.9814 12.2259 77.9486 12.2259C77.8666 12.3568 77.7764 12.455 77.6781 12.5205C77.6453 12.5205 77.5469 12.6023 77.3829 12.766C77.3829 12.7823 77.3338 12.856 77.2354 12.9869C77.2026 13.1015 77.1698 13.1915 77.137 13.257C77.1206 13.3224 77.1124 13.3715 77.1124 13.4043C77.178 13.5188 77.2436 13.5761 77.3092 13.5761H77.3338C77.3502 13.5597 77.3665 13.5516 77.3829 13.5516C77.4649 13.5516 77.5633 13.5761 77.6781 13.6252ZM82.2524 13.7725V13.7234C82.2524 13.6252 82.3016 13.5679 82.4 13.5516C82.3836 13.617 82.3344 13.6907 82.2524 13.7725Z" fill="#FF3D00"/>
</svg>
