<svg width="100" height="15" viewBox="0 0 100 15" fill="none" xmlns="http://www.w3.org/2000/svg">
<path d="M12.6025 1.05823V14.2764H11.7367V2.86683L6.65721 14.2764H5.96455L0.865822 2.86683V14.2764H0V1.05823H0.923543L6.31088 13.1412L11.6982 1.05823H12.6025Z" fill="#FF3D00"/>
<path d="M15.4708 9.04303C15.4708 7.96556 15.6825 7.02278 16.1058 6.21468C16.5419 5.40658 17.1383 4.78447 17.8951 4.34835C18.6648 3.91223 19.537 3.69417 20.5118 3.69417C21.615 3.69417 22.5513 3.96354 23.3209 4.50227C24.0906 5.04101 24.6293 5.72725 24.9371 6.561V3.82886H25.803V14.2764H24.9371V11.525C24.6293 12.3716 24.0842 13.0707 23.3017 13.6223C22.5321 14.161 21.6021 14.4304 20.5118 14.4304C19.537 14.4304 18.6648 14.2123 17.8951 13.7762C17.1383 13.3272 16.5419 12.6987 16.1058 11.8906C15.6825 11.0697 15.4708 10.1205 15.4708 9.04303ZM24.9371 9.04303C24.9371 8.13231 24.7447 7.33062 24.3599 6.63797C23.9879 5.93248 23.4749 5.39375 22.8207 5.02177C22.1665 4.63696 21.4354 4.44455 20.6273 4.44455C19.7807 4.44455 19.0367 4.63054 18.3954 5.00253C17.754 5.36168 17.2538 5.88759 16.8946 6.58024C16.5355 7.2729 16.3559 8.09383 16.3559 9.04303C16.3559 9.99222 16.5355 10.8131 16.8946 11.5058C17.2538 12.1985 17.754 12.7308 18.3954 13.1028C19.0496 13.4748 19.7935 13.6607 20.6273 13.6607C21.4354 13.6607 22.1665 13.4748 22.8207 13.1028C23.4877 12.718 24.0072 12.1792 24.3792 11.4866C24.7512 10.7811 24.9371 9.96657 24.9371 9.04303Z" fill="#FF3D00"/>
<path d="M33.8958 3.61721C35.14 3.61721 36.1534 4.00202 36.9358 4.77164C37.7183 5.52843 38.1095 6.65721 38.1095 8.15796V14.2764H37.2629V8.21568C37.2629 6.97147 36.9486 6.02227 36.3201 5.36809C35.6916 4.70109 34.8386 4.36759 33.7611 4.36759C32.6324 4.36759 31.7281 4.72674 31.0482 5.44506C30.3812 6.16337 30.0477 7.22801 30.0477 8.63898V14.2764H29.1819V3.82886H30.0477V6.04151C30.3428 5.25906 30.8302 4.66261 31.51 4.25215C32.2027 3.82886 32.9979 3.61721 33.8958 3.61721Z" fill="#FF3D00"/>
<path d="M41.8385 1.50076C41.6333 1.50076 41.4601 1.43662 41.319 1.30835C41.1779 1.16726 41.1074 0.981264 41.1074 0.750379C41.1074 0.53232 41.1779 0.352743 41.319 0.211646C41.4601 0.0705488 41.6333 0 41.8385 0C42.0437 0 42.2169 0.0705488 42.358 0.211646C42.4991 0.352743 42.5697 0.53232 42.5697 0.750379C42.5697 0.981264 42.4991 1.16726 42.358 1.30835C42.2169 1.43662 42.0437 1.50076 41.8385 1.50076ZM42.2618 3.82886V14.2764H41.396V3.82886H42.2618Z" fill="#FF3D00"/>
<path d="M45.1234 9.04303C45.1234 7.96556 45.335 7.02278 45.7583 6.21468C46.1944 5.40658 46.7909 4.78447 47.5477 4.34835C48.3173 3.91223 49.1895 3.69417 50.1644 3.69417C51.2675 3.69417 52.2039 3.96354 52.9735 4.50227C53.7431 5.04101 54.2818 5.72725 54.5897 6.561V3.82886H55.4555V14.2764H54.5897V11.525C54.2818 12.3716 53.7367 13.0707 52.9542 13.6223C52.1846 14.161 51.2547 14.4304 50.1644 14.4304C49.1895 14.4304 48.3173 14.2123 47.5477 13.7762C46.7909 13.3272 46.1944 12.6987 45.7583 11.8906C45.335 11.0697 45.1234 10.1205 45.1234 9.04303ZM54.5897 9.04303C54.5897 8.13231 54.3973 7.33062 54.0125 6.63797C53.6405 5.93248 53.1274 5.39375 52.4732 5.02177C51.819 4.63696 51.0879 4.44455 50.2798 4.44455C49.4332 4.44455 48.6893 4.63054 48.0479 5.00253C47.4066 5.36168 46.9063 5.88759 46.5472 6.58024C46.188 7.2729 46.0084 8.09383 46.0084 9.04303C46.0084 9.99222 46.188 10.8131 46.5472 11.5058C46.9063 12.1985 47.4066 12.7308 48.0479 13.1028C48.7021 13.4748 49.4461 13.6607 50.2798 13.6607C51.0879 13.6607 51.819 13.4748 52.4732 13.1028C53.1402 12.718 53.6597 12.1792 54.0317 11.4866C54.4037 10.7811 54.5897 9.96657 54.5897 9.04303Z" fill="#FF3D00"/>
<path d="M58.2957 9.04303C58.2957 7.95273 58.5074 7.00354 58.9306 6.19544C59.3668 5.38733 59.9632 4.77164 60.72 4.34835C61.4896 3.91223 62.3683 3.69417 63.356 3.69417C64.6643 3.69417 65.7354 4.02126 66.5691 4.67544C67.4157 5.32961 67.9416 6.20826 68.1468 7.31138H67.2425C67.0758 6.41349 66.6397 5.70801 65.9342 5.19493C65.2415 4.68185 64.3821 4.42531 63.356 4.42531C62.5863 4.42531 61.8873 4.59847 61.2587 4.9448C60.6302 5.27831 60.1236 5.7978 59.7387 6.50328C59.3668 7.19594 59.1808 8.04252 59.1808 9.04303C59.1808 10.0564 59.3668 10.9094 59.7387 11.602C60.1236 12.2947 60.6302 12.8142 61.2587 13.1605C61.8873 13.5068 62.5863 13.68 63.356 13.68C64.3821 13.68 65.2415 13.4234 65.9342 12.9104C66.6397 12.3973 67.0758 11.6918 67.2425 10.7939H68.1468C67.9416 11.8842 67.4157 12.7629 66.5691 13.4299C65.7225 14.0969 64.6515 14.4304 63.356 14.4304C62.3683 14.4304 61.4896 14.2123 60.72 13.7762C59.9632 13.3401 59.3668 12.718 58.9306 11.9099C58.5074 11.0889 58.2957 10.1333 58.2957 9.04303Z" fill="#FF3D00"/>
<path d="M71.7998 0.76962V9.21619C71.7998 10.7426 72.1461 11.865 72.8388 12.5833C73.5314 13.2888 74.4742 13.6415 75.6671 13.6415C76.8472 13.6415 77.7772 13.2888 78.457 12.5833C79.1368 11.8778 79.4768 10.7554 79.4768 9.21619V0.76962H79.9097C80.1488 0.76962 80.3426 0.963442 80.3426 1.20253V9.19695C80.3426 10.9542 79.9193 12.2626 79.0727 13.122C78.2261 13.9814 77.0909 14.4111 75.6671 14.4111C74.2433 14.4111 73.0953 13.9814 72.2231 13.122C71.3637 12.2498 70.934 10.9414 70.934 9.19695V1.20253C70.934 0.963439 71.1278 0.76962 71.3669 0.76962H71.7998Z" fill="#FF3D00"/>
<path d="M84.5042 5.98379C84.7607 5.21417 85.2161 4.63054 85.8703 4.23291C86.5245 3.82244 87.3582 3.61721 88.3716 3.61721V4.52151H88.0829C87.0568 4.52151 86.2038 4.81653 85.524 5.40657C84.8441 5.98379 84.5042 6.93299 84.5042 8.25417V14.2764H83.6384V3.82886H84.5042V5.98379Z" fill="#FF3D00"/>
<path d="M100 8.35037C100 8.81214 99.9872 9.15847 99.9615 9.38936H90.9377C90.9634 10.3257 91.1686 11.1146 91.5534 11.7559C91.9382 12.3973 92.4449 12.8783 93.0734 13.199C93.702 13.5196 94.3882 13.68 95.1322 13.68C96.1583 13.68 97.0177 13.4299 97.7104 12.9296C98.403 12.4165 98.8392 11.7239 99.0187 10.8516H99.923C99.7178 11.9163 99.1919 12.7821 98.3453 13.4491C97.4987 14.1033 96.4277 14.4304 95.1322 14.4304C94.1573 14.4304 93.2851 14.2123 92.5154 13.7762C91.7458 13.3401 91.143 12.718 90.7068 11.9099C90.2707 11.0889 90.0527 10.1333 90.0527 9.04303C90.0527 7.95273 90.2643 7.00354 90.6876 6.19544C91.1237 5.38733 91.7266 4.77164 92.4962 4.34835C93.2658 3.91223 94.1445 3.69417 95.1322 3.69417C96.1327 3.69417 96.9985 3.91223 97.7296 4.34835C98.4736 4.77164 99.038 5.34244 99.4228 6.06075C99.8076 6.76624 100 7.52944 100 8.35037ZM99.1342 8.67746C99.1727 7.75391 99.0059 6.97147 98.6339 6.33012C98.2748 5.68877 97.7809 5.21417 97.1524 4.90632C96.5239 4.58565 95.8441 4.42531 95.1129 4.42531C94.3818 4.42531 93.702 4.58565 93.0734 4.90632C92.4577 5.21417 91.9511 5.68877 91.5534 6.33012C91.1686 6.97147 90.9634 7.75391 90.9377 8.67746H99.1342Z" fill="#FF3D00"/>
<path d="M79.9114 7.84216C79.9114 11.4363 78.0112 14.35 75.6672 14.35C73.3232 14.35 71.423 11.4363 71.423 7.84216C71.423 4.248 73.3232 1.33435 75.6672 1.33435C78.0112 1.33435 79.9114 4.248 79.9114 7.84216Z" fill="#FF3D00"/>
<path d="M71.423 0.768433H79.9114V7.55919H71.423V0.768433Z" fill="#FF3D00"/>
<path d="M72.02 3.55086C72.0205 3.37534 72.1158 3.21377 72.2691 3.12844C72.4131 3.04837 72.59 3.04802 72.7354 3.12552C72.8967 3.21154 73 3.38081 73 3.56362V10.4333C73 10.618 72.898 10.7877 72.7351 10.8746C72.5882 10.9529 72.4119 10.953 72.2651 10.8747C72.102 10.7877 72.0003 10.6177 72.0008 10.4328L72.02 3.55086Z" fill="white"/>
</svg>
