<svg width="22" height="18" viewBox="0 0 22 18" fill="none" xmlns="http://www.w3.org/2000/svg">
<path d="M17.2166 18C16.4953 18 15.8372 17.8913 15.2425 17.674C14.6477 17.4438 14.1415 17.1306 13.7239 16.7342C13.3063 16.3251 12.9773 15.8329 12.7368 15.2575C12.5091 14.6822 12.3952 14.0429 12.3952 13.3397C12.3952 12.611 12.5217 11.8502 12.7748 11.0575C13.0406 10.2648 13.4202 9.46575 13.9137 8.66027C14.4072 7.85479 15.002 7.0621 15.698 6.28219C16.4067 5.4895 17.2102 4.72877 18.1087 4L20.2916 5.72603C19.874 6.16073 19.4944 6.57626 19.1527 6.9726C18.8237 7.36895 18.52 7.7653 18.2416 8.16164C17.9632 8.55799 17.7038 8.96712 17.4633 9.38904C17.2355 9.81096 17.0267 10.2584 16.8369 10.7315L22 13.3397C22 14.0301 21.8671 14.663 21.6014 15.2384C21.3483 15.8137 21.0066 16.3059 20.5764 16.7151C20.1461 17.1242 19.6399 17.4438 19.0578 17.674C18.4757 17.8913 17.8619 18 17.2166 18ZM4.8214 18C4.10009 18 3.44205 17.8913 2.84728 17.674C2.25252 17.4438 1.74633 17.1306 1.32873 16.7342C0.91113 16.3251 0.582111 15.8329 0.341674 15.2575C0.113891 14.6822 0 14.0429 0 13.3397C0 12.611 0.126546 11.8502 0.379638 11.0575C0.645384 10.2648 1.02502 9.46575 1.51855 8.66027C2.01208 7.85479 2.60684 7.0621 3.30285 6.28219C4.0115 5.4895 4.81507 4.72877 5.71355 4L7.89646 5.72603C7.47886 6.16073 7.09922 6.57626 6.75755 6.9726C6.42853 7.36895 6.12482 7.7653 5.84642 8.16164C5.56802 8.55799 5.3086 8.96712 5.06816 9.38904C4.84038 9.81096 4.63158 10.2584 4.44176 10.7315L9.60483 13.3397C9.60483 14.0301 9.47196 14.663 9.20621 15.2384C8.95312 15.8137 8.61145 16.3059 8.18119 16.7151C7.75093 17.1242 7.24475 17.4438 6.66264 17.674C6.08053 17.8913 5.46678 18 4.8214 18Z" fill="#FF3D00"/>
</svg>
